<svg xmlns="http://www.w3.org/2000/svg" viewBox="0 0 208 167"><defs><style>.cls-1{fill:#ace0b2;}.cls-2{fill:#eff8f9;}.cls-3{fill:#d4f1d8;}.cls-4{fill:#cbe4e6;}.cls-5{fill:#f06c57;}.cls-6{fill:none;}</style></defs><g id="Calque_2" data-name="Calque 2"><g id="aide_a_la_personne" data-name="aide a la personne"><g id="Calque_21" data-name="Calque 21"><polygon class="cls-1" points="16 37 4.7 41.95 2 53 3.13 151 6 161 12 163 195 164.17 201 160 205.3 147.03 205.3 59.3 205.3 43.89 195 36 16 37"/><polygon class="cls-2" points="25.02 29 19.57 33 19.89 116.24 25.83 130.78 37.35 141.07 43.8 147.03 153.99 145.58 165.13 146.74 174.48 137.5 185.42 123.51 188.58 104.96 187.78 33 185.2 29 25.02 29"/><rect class="cls-3" x="150" y="29" width="15" height="119"/><rect class="cls-3" x="43" y="29" width="15" height="119"/><rect class="cls-4" x="39" y="87" width="22" height="25"/><rect class="cls-4" x="147" y="88" width="22" height="25"/><polyline class="cls-5" points="74.2 3.54 135.65 3.54 133.94 19 73.73 19 73.73 3.54"/><polygon class="cls-5" points="96 64 112 64 113 78 127 79 126 96 113 97 111.5 109.14 94.96 109.14 93 96 82 95 83 78 95 77 96 64"/></g><g id="Calque_13" data-name="Calque 13"><polygon class="cls-6" points="153 35 153 37 153 38 153 40 153 41 153 83 163 83 163 41 163 40 163 38 163 37 163 35 163 34 163 32 153 32 153 34 153 35"/><path class="cls-6" d="M169,37V83.45l.12,0a7,7,0,0,1,.92.42.05.05,0,0,1,0,0,7.67,7.67,0,0,1,.82.53l.19.14a7.75,7.75,0,0,1,.74.66l.1.11a6.53,6.53,0,0,1,.58.7l.12.16a8,8,0,0,1,.52.85l.09.18a8.93,8.93,0,0,1,.35.85.78.78,0,0,0,0,.14,8.1,8.1,0,0,1,.24,1l0,.23a6.38,6.38,0,0,1,.09,1.08v15.86a6.38,6.38,0,0,1-.09,1.08l0,.23a8.1,8.1,0,0,1-.24,1,.78.78,0,0,0,0,.14,8.93,8.93,0,0,1-.35.85l-.09.18a9.35,9.35,0,0,1-.52.86l-.12.15a6.53,6.53,0,0,1-.58.7l-.1.11a6.81,6.81,0,0,1-.75.66,1.09,1.09,0,0,1-.17.13,6.86,6.86,0,0,1-.85.55h0a7.92,7.92,0,0,1-.94.42l-.11,0v24.63l.28-.17q.81-.49,1.59-1l.3-.2c.61-.44,1.2-.91,1.78-1.39l.47-.4c.44-.38.87-.77,1.28-1.17l.48-.45c.53-.53,1.06-1.08,1.55-1.64h0A33.19,33.19,0,0,0,185,109.8V40l-.14-6a2.9,2.9,0,0,0-2.75-2H169v5Z"/><path class="cls-6" d="M163,114H153v28.76a2.22,2.22,0,0,0,.5,1.38h0a2.25,2.25,0,0,0,1.74.86h5.52a2.23,2.23,0,0,0,2.21-2.08l0-.44V114Z"/><path class="cls-6" d="M84.61,94H97v12.39a.61.61,0,0,0,.61.61h11.78a.61.61,0,0,0,.61-.61V94h13.39a.61.61,0,0,0,.61-.61V81.61a.61.61,0,0,0-.61-.61H110V67.61a.61.61,0,0,0-.61-.61H97.61a.61.61,0,0,0-.61.61V81H84.61a.61.61,0,0,0-.61.61V93.39A.61.61,0,0,0,84.61,94Z"/><path class="cls-6" d="M78,81.61A6.61,6.61,0,0,1,84.61,75H91V67.61A6.61,6.61,0,0,1,97.61,61h11.78A6.61,6.61,0,0,1,116,67.61V75h7.39A6.61,6.61,0,0,1,130,81.61V93.39a6.61,6.61,0,0,1-6.61,6.61H116v6.39a6.61,6.61,0,0,1-6.61,6.61H97.61A6.61,6.61,0,0,1,91,106.39V100H84.61A6.61,6.61,0,0,1,78,93.39Z"/><path class="cls-6" d="M76.37,16h55.26a1.1,1.1,0,0,0,.26,0l2.05-8.12A2.37,2.37,0,0,0,131.63,6H76.37A2.36,2.36,0,0,0,74.2,7.44L76.34,16Z"/><path class="cls-6" d="M48.24,145h5.52a2.23,2.23,0,0,0,1.74-.87h0a2.21,2.21,0,0,0,.5-1.37V115H46v27.76a1.54,1.54,0,0,0,0,.3v0A2.2,2.2,0,0,0,48.24,145Z"/><path class="cls-6" d="M60,107.43V91.57A1.56,1.56,0,0,0,58.63,90l-.29,0H41.57A1.57,1.57,0,0,0,40,91.57v15.86A1.57,1.57,0,0,0,41.57,109l17.06,0A1.56,1.56,0,0,0,60,107.43Z"/><path class="cls-6" d="M166.43,108a1.57,1.57,0,0,0,1.57-1.57V90.57A1.57,1.57,0,0,0,166.43,89H149.57A1.57,1.57,0,0,0,148,90.57v15.86a1.57,1.57,0,0,0,1.57,1.57h16.86Z"/><path class="cls-6" d="M144.63,26a14.33,14.33,0,0,0-5.39-9,8.35,8.35,0,0,1-7.61,5H76.37a8.34,8.34,0,0,1-7.93-5.75A14.61,14.61,0,0,0,63.21,26h81.42Z"/><polygon points="144 29 63 29 62 29 62 32 144 32 144 29"/><path d="M144,29V26H63.21A21.62,21.62,0,0,0,63,29Z"/><polygon points="59 38 62 38 62 37 59 37 58.5 37.5 59 38"/><polygon points="59 37 58 37 58.5 37.5 59 37"/><polygon points="147 34 147 37 150 37 147 34"/><polygon points="150 37 151 37 153 35 153 34 153 32 147 32 147 34 150 37"/><polygon points="150.5 37.5 150 37 147 37 147 38 150 38 150.5 37.5"/><polygon points="151 37 150 37 150.5 37.5 151 37"/><path d="M163,134.11v8.37l.1-1.4,1.69-.72a31.09,31.09,0,0,0,4.21-2.18v-4.07Z"/><path d="M170.87,137q-.78.56-1.59,1Q170.09,137.52,170.87,137Z"/><path d="M173,135.37c-.58.48-1.17.95-1.78,1.39C171.78,136.32,172.37,135.85,173,135.37Z"/><path d="M174.7,133.8c-.41.4-.84.79-1.28,1.17C173.86,134.59,174.29,134.2,174.7,133.8Z"/><path d="M175.18,133.35c.53-.53,1-1.07,1.55-1.64h0C176.24,132.27,175.71,132.82,175.18,133.35Z"/><path d="M35.06,135.37q-.8-.66-1.56-1.38Q34.27,134.71,35.06,135.37Z"/><path d="M46,134.51H40v4.25a33.15,33.15,0,0,0,4.17,2l1.62.63.25,1.69a1.54,1.54,0,0,1,0-.3Z"/><path d="M33,133.52c-.6-.59-1.19-1.19-1.75-1.82C31.81,132.33,32.4,132.93,33,133.52Z"/><path d="M37.44,137.17c-.69-.47-1.36-1-2-1.49C36.08,136.21,36.75,136.7,37.44,137.17Z"/><path d="M39.65,138.56c-.58-.34-1.15-.69-1.71-1.06C38.5,137.87,39.07,138.22,39.65,138.56Z"/><path d="M153.5,144.13h0a2.22,2.22,0,0,1-.5-1.38V137h-6v6h5.6Z"/><path d="M56,142.76a2.21,2.21,0,0,1-.5,1.37l.9-1.13H62v-6H56Z"/><path d="M30.49,130.78c.25.31.49.61.75.9v0h0C31,131.4,30.74,131.09,30.49,130.78Z"/><path d="M23.84,117.23c0-.18-.07-.35-.11-.53C23.77,116.88,23.8,117.05,23.84,117.23Z"/><path d="M23.31,114.3c0-.36-.09-.71-.13-1.07C23.22,113.59,23.26,113.94,23.31,114.3Z"/><path d="M24.21,118.67c-.06-.19-.1-.38-.15-.57C24.11,118.29,24.15,118.48,24.21,118.67Z"/><path d="M23,111.31c0-.5,0-1,0-1.51C23,110.31,23,110.81,23,111.31Z"/><path d="M23.14,112.81c0-.36-.06-.72-.08-1.09C23.08,112.09,23.1,112.45,23.14,112.81Z"/><path d="M23.54,115.77c0-.22-.07-.45-.11-.67C23.47,115.32,23.5,115.55,23.54,115.77Z"/><path d="M28.51,128.11l-.45-.71Z"/><path d="M29.37,129.34c-.2-.26-.38-.54-.56-.81C29,128.8,29.17,129.08,29.37,129.34Z"/><path d="M30.28,130.54c-.22-.29-.44-.57-.65-.86C29.84,130,30.06,130.25,30.28,130.54Z"/><path d="M27.71,126.85c-.13-.23-.26-.46-.38-.69C27.45,126.39,27.58,126.62,27.71,126.85Z"/><path d="M25.13,121.49c-.08-.2-.15-.42-.22-.63C25,121.07,25.05,121.29,25.13,121.49Z"/><path d="M26.3,124.23l-.33-.72Z"/><path d="M24.64,120.09c-.07-.19-.12-.39-.18-.59C24.52,119.7,24.57,119.9,24.64,120.09Z"/><path d="M25.68,122.87l-.27-.68Z"/><path d="M27,125.55c-.13-.24-.25-.48-.37-.73C26.73,125.07,26.85,125.31,27,125.55Z"/><path d="M153,114h-3.43a7.52,7.52,0,0,1-2.69-.5l.12,0V137h6Z"/><path d="M63.9,86.38a6.56,6.56,0,0,0-.67-.62A6.56,6.56,0,0,1,63.9,86.38Z"/><path d="M142.85,109.91l-.09-.18Z"/><path d="M142.41,108.88a.78.78,0,0,0,0-.14A.78.78,0,0,1,142.41,108.88Z"/><path d="M147,83.45l-.12,0,.12,0Z"/><path d="M146,113.08a.05.05,0,0,1,0,0A.05.05,0,0,0,146,113.08Z"/><path d="M62.47,85.21c-.16-.1-.31-.21-.47-.3v0Z"/><path d="M144.17,111.73l-.1-.11Z"/><path d="M145.1,112.53l-.19-.14Z"/><path d="M143.49,110.92l-.12-.16Z"/><path d="M144.91,84.61l.19-.14Z"/><path d="M144.07,85.38l.1-.11Z"/><path d="M143.37,86.24l.12-.16Z"/><path d="M145.92,83.94a.05.05,0,0,1,0,0A.05.05,0,0,0,145.92,83.94Z"/><path d="M142.12,107.74l0-.23Z"/><path d="M142.09,89.49l0-.23Z"/><path d="M142.36,88.26a.78.78,0,0,0,0-.14A.78.78,0,0,1,142.36,88.26Z"/><path d="M142.76,87.27l.09-.18Z"/><path d="M64.9,111.34h0Z"/><path d="M64.38,112.08a2.09,2.09,0,0,1-.14.17A2.09,2.09,0,0,0,64.38,112.08Z"/><path d="M65.71,109.49h0Z"/><path d="M65.9,90.4l0,.23Z"/><path d="M65.4,110.35a1.21,1.21,0,0,1-.09.2A1.21,1.21,0,0,0,65.4,110.35Z"/><path d="M64.16,86.66c.1.11.19.22.28.34C64.35,86.88,64.26,86.77,64.16,86.66Z"/><path d="M63.63,112.91h0Z"/><path d="M65.93,108.37l0,.23Z"/><path d="M65.7,89.48l0,0Z"/><path d="M59.28,114.93a6,6,0,0,1-.85.07H56v22h6V114.09h0a7.71,7.71,0,0,1-2.63.83Z"/><polygon points="58.63 90.03 58.35 90 58.34 90 58.63 90.03"/><path d="M64.78,87.49c.07.1.13.2.19.3C64.91,87.69,64.85,87.59,64.78,87.49Z"/><path d="M62.59,85.28a5.92,5.92,0,0,1,.48.35A5.92,5.92,0,0,0,62.59,85.28Z"/><path d="M65.3,88.42a2,2,0,0,1,.11.26A2,2,0,0,0,65.3,88.42Z"/><path d="M63,113.48l-.18.13Z"/><polygon points="58.5 37.5 58 38 59 38 58.5 37.5"/><polygon points="56 38 58 38 58.5 37.5 58 37 56 37 56 38"/><polygon points="153 35 151 37 153 37 153 35"/><polygon points="150 38 151 38 150.5 37.5 150 38"/><polygon points="151 38 153 38 153 37 151 37 150.5 37.5 151 38"/><path d="M84.61,100H91v6.39A6.61,6.61,0,0,0,97.61,113h11.78a6.61,6.61,0,0,0,6.61-6.61V100h7.39A6.61,6.61,0,0,0,130,93.39V81.61A6.61,6.61,0,0,0,123.39,75H116V67.61A6.61,6.61,0,0,0,109.39,61H97.61A6.61,6.61,0,0,0,91,67.61V75H84.61A6.61,6.61,0,0,0,78,81.61V93.39A6.61,6.61,0,0,0,84.61,100ZM84,81.61a.61.61,0,0,1,.61-.61H97V67.61a.61.61,0,0,1,.61-.61h11.78a.61.61,0,0,1,.61.61V81h13.39a.61.61,0,0,1,.61.61V93.39a.61.61,0,0,1-.61.61H110v12.39a.61.61,0,0,1-.61.61H97.61a.61.61,0,0,1-.61-.61V94H84.61a.61.61,0,0,1-.61-.61Z"/><path d="M173.64,88.26a8.1,8.1,0,0,1,.24,1A8.1,8.1,0,0,0,173.64,88.26Z"/><path d="M144.17,85.27a7.75,7.75,0,0,1,.74-.66A7.75,7.75,0,0,0,144.17,85.27Z"/><path d="M145.1,84.47a7.67,7.67,0,0,1,.82-.53A7.67,7.67,0,0,0,145.1,84.47Z"/><path d="M173.24,87.27a8.93,8.93,0,0,1,.35.85A8.93,8.93,0,0,0,173.24,87.27Z"/><path d="M169.12,83.5a7,7,0,0,1,.92.42A7,7,0,0,0,169.12,83.5Z"/><path d="M172.63,86.24a8,8,0,0,1,.52.85A8,8,0,0,0,172.63,86.24Z"/><path d="M146,83.92a7,7,0,0,1,.92-.42A7,7,0,0,0,146,83.92Z"/><path d="M171.09,84.61a7.75,7.75,0,0,1,.74.66A7.75,7.75,0,0,0,171.09,84.61Z"/><path d="M171.93,85.38a6.53,6.53,0,0,1,.58.7A6.53,6.53,0,0,0,171.93,85.38Z"/><path d="M170.08,83.94a7.67,7.67,0,0,1,.82.53A7.67,7.67,0,0,0,170.08,83.94Z"/><path d="M173.91,89.49a6.38,6.38,0,0,1,.09,1.08A6.38,6.38,0,0,0,173.91,89.49Z"/><path d="M144.91,112.39a7.75,7.75,0,0,1-.74-.66A7.75,7.75,0,0,0,144.91,112.39Z"/><path d="M143.37,110.76a8,8,0,0,1-.52-.85A8,8,0,0,0,143.37,110.76Z"/><path d="M146.88,113.5a7,7,0,0,1-.92-.42A7,7,0,0,0,146.88,113.5Z"/><path d="M142.76,109.73a8.93,8.93,0,0,1-.35-.85A8.93,8.93,0,0,0,142.76,109.73Z"/><path d="M145.92,113.06a7.67,7.67,0,0,1-.82-.53A7.67,7.67,0,0,0,145.92,113.06Z"/><path d="M143.49,86.08a6.53,6.53,0,0,1,.58-.7A6.53,6.53,0,0,0,143.49,86.08Z"/><path d="M142.36,108.74a8.1,8.1,0,0,1-.24-1A8.1,8.1,0,0,0,142.36,108.74Z"/><path d="M142.41,88.12a8.93,8.93,0,0,1,.35-.85A8.93,8.93,0,0,0,142.41,88.12Z"/><path d="M142.85,87.09a8,8,0,0,1,.52-.85A8,8,0,0,0,142.85,87.09Z"/><path d="M142.12,89.26a8.1,8.1,0,0,1,.24-1A8.1,8.1,0,0,0,142.12,89.26Z"/><path d="M142,90.57a6.38,6.38,0,0,1,.09-1.08A6.38,6.38,0,0,0,142,90.57Z"/><path d="M142.09,107.51a6.38,6.38,0,0,1-.09-1.08A6.38,6.38,0,0,0,142.09,107.51Z"/><path d="M144.07,111.62a6.53,6.53,0,0,1-.58-.7A6.53,6.53,0,0,0,144.07,111.62Z"/><rect x="153" y="108" width="10" height="6"/><path d="M171.83,111.73a5.9,5.9,0,0,1-.75.66A6.81,6.81,0,0,0,171.83,111.73Z"/><path d="M174,106.43a6.38,6.38,0,0,1-.09,1.08A6.38,6.38,0,0,0,174,106.43Z"/><path d="M172.51,110.92a6.53,6.53,0,0,1-.58.7A6.53,6.53,0,0,0,172.51,110.92Z"/><path d="M173.59,108.88a8.93,8.93,0,0,1-.35.85A8.93,8.93,0,0,0,173.59,108.88Z"/><path d="M173.15,109.91a9.35,9.35,0,0,1-.52.86A9.35,9.35,0,0,0,173.15,109.91Z"/><path d="M170.05,113.08a7.92,7.92,0,0,1-.94.42A7.92,7.92,0,0,0,170.05,113.08Z"/><path d="M170.91,112.52a6.86,6.86,0,0,1-.85.55A6.86,6.86,0,0,0,170.91,112.52Z"/><path d="M173.88,107.74a8.1,8.1,0,0,1-.24,1A8.1,8.1,0,0,0,173.88,107.74Z"/><path d="M153,114v-6h-3.43a1.57,1.57,0,0,1-1.57-1.57V90.57A1.57,1.57,0,0,1,149.57,89H147V83.46l-.12,0a7,7,0,0,0-.92.42.05.05,0,0,0,0,0,7.67,7.67,0,0,0-.82.53l-.19.14a7.75,7.75,0,0,0-.74.66l-.1.11a6.53,6.53,0,0,0-.58.7l-.12.16a8,8,0,0,0-.52.85l-.09.18a8.93,8.93,0,0,0-.35.85.78.78,0,0,1,0,.14,8.1,8.1,0,0,0-.24,1l0,.23a6.38,6.38,0,0,0-.09,1.08v15.86a6.38,6.38,0,0,0,.09,1.08l0,.23a8.1,8.1,0,0,0,.24,1,.78.78,0,0,1,0,.14,8.93,8.93,0,0,0,.35.85l.09.18a8,8,0,0,0,.52.85l.12.16a6.53,6.53,0,0,0,.58.7l.1.11a7.75,7.75,0,0,0,.74.66l.19.14a7.67,7.67,0,0,0,.82.53.05.05,0,0,0,0,0,7,7,0,0,0,.92.42,7.52,7.52,0,0,0,2.69.5Z"/><path d="M36.35,112.91l-.17-.17Z"/><path d="M64.89,111.35a6,6,0,0,1-.51.73A6,6,0,0,0,64.89,111.35Z"/><path d="M65.71,109.5a6.66,6.66,0,0,1-.31.85A6.66,6.66,0,0,0,65.71,109.5Z"/><path d="M65.31,110.55a6.54,6.54,0,0,1-.41.79A6.54,6.54,0,0,0,65.31,110.55Z"/><path d="M64.24,112.25a7.45,7.45,0,0,1-.6.65A7.45,7.45,0,0,0,64.24,112.25Z"/><path d="M34.65,110.48a2.72,2.72,0,0,1-.11-.25A2.72,2.72,0,0,0,34.65,110.48Z"/><path d="M34.31,89.44c0-.09,0-.18.08-.27C34.36,89.26,34.34,89.35,34.31,89.44Z"/><path d="M35,111.1a1.63,1.63,0,0,1-.11-.23A1.63,1.63,0,0,0,35,111.1Z"/><path d="M35.31,111.69l-.1-.17Z"/><path d="M35.79,112.31l-.07-.07Z"/><path d="M34.14,90.13l.06-.27Z"/><rect x="46" y="90" width="12.34"/><path d="M62.77,113.61c-.25.17-.5.33-.77.48C62.27,113.94,62.52,113.78,62.77,113.61Z"/><polygon points="58.63 108.97 41.56 109 46 109 46 115 56 115 56 109.3 58.63 108.97"/><path d="M65.9,108.6a6.71,6.71,0,0,1-.19.89A6.71,6.71,0,0,0,65.9,108.6Z"/><path d="M34.2,109.14l-.06-.27Z"/><path d="M38.45,84.68l.24-.11Z"/><path d="M34.39,109.83c0-.09,0-.18-.08-.27C34.34,109.65,34.36,109.74,34.39,109.83Z"/><path d="M39.16,84.4l.18-.07Z"/><path d="M62.47,85.21l.12.07Z"/><path d="M37.82,85l.24-.13Z"/><path d="M34,90.84a2,2,0,0,1,0-.24A2,2,0,0,0,34,90.84Z"/><path d="M36.18,86.26l.17-.17Z"/><path d="M37.23,85.37l.23-.15Z"/><path d="M63.07,85.63l.16.13Z"/><path d="M36.69,85.79l.21-.16Z"/><path d="M65.72,89.53a6.09,6.09,0,0,1,.18.87A6.09,6.09,0,0,0,65.72,89.53Z"/><path d="M63.9,86.38l.26.28Z"/><path d="M65.41,88.68a6.9,6.9,0,0,1,.29.8A6.9,6.9,0,0,0,65.41,88.68Z"/><path d="M66,107.43a7.3,7.3,0,0,1-.07.94A7.3,7.3,0,0,0,66,107.43Z"/><path d="M65.93,90.63a7.3,7.3,0,0,1,.07.94A7.3,7.3,0,0,0,65.93,90.63Z"/><path d="M64.44,87c.12.16.23.32.34.49C64.67,87.32,64.56,87.16,64.44,87Z"/><path d="M34.07,108.4a2,2,0,0,1,0-.24A2,2,0,0,0,34.07,108.4Z"/><path d="M65,87.79c.12.21.23.41.33.63Q65.15,88.1,65,87.79Z"/><path d="M63.63,112.91c-.21.2-.45.39-.68.57C63.18,113.3,63.42,113.11,63.63,112.91Z"/><path d="M37.46,113.78l-.23-.15Z"/><path d="M35.21,87.48l.1-.17Z"/><path d="M38.06,114.13l-.24-.13Z"/><path d="M34.84,88.13A1.63,1.63,0,0,1,35,87.9,1.63,1.63,0,0,0,34.84,88.13Z"/><path d="M39.34,114.67l-.18-.07Z"/><path d="M34.54,88.77a2.72,2.72,0,0,1,.11-.25A2.72,2.72,0,0,0,34.54,88.77Z"/><path d="M38.69,114.43l-.24-.11Z"/><path d="M35.72,86.76l.07-.07Z"/><path d="M36.9,113.37l-.21-.16Z"/><polygon points="58.35 90 58.34 90 58.34 90 58.35 90"/><path d="M62,90.46,58.35,90l.28,0A1.56,1.56,0,0,1,60,91.57v15.86A1.56,1.56,0,0,1,58.63,109l-2.63.32V115h2.43a6,6,0,0,0,.85-.07h.09a7.71,7.71,0,0,0,2.63-.83c.27-.15.52-.31.77-.48l.18-.13c.23-.18.47-.37.68-.57h0a7.45,7.45,0,0,0,.6-.65,2.09,2.09,0,0,0,.14-.17,6,6,0,0,0,.51-.73h0a6.54,6.54,0,0,0,.41-.79,1.21,1.21,0,0,0,.09-.2,6.66,6.66,0,0,0,.31-.85h0a6.71,6.71,0,0,0,.19-.89l0-.23a7.3,7.3,0,0,0,.07-.94V91.57a7.3,7.3,0,0,0-.07-.94l0-.23a6.09,6.09,0,0,0-.18-.87l0,0a6.9,6.9,0,0,0-.29-.8,2,2,0,0,0-.11-.26c-.1-.22-.21-.42-.33-.63s-.12-.2-.19-.3-.22-.33-.34-.49-.18-.23-.28-.34l-.26-.28a6.56,6.56,0,0,0-.67-.62l-.16-.13a5.92,5.92,0,0,0-.48-.35l-.12-.07L62,84.93Z"/><rect x="46" y="26" width="10" height="6"/><polygon points="62 34 59 37 62 37 62 34"/><path d="M56,34v1l2,2h1l3-3V29H57a28.69,28.69,0,0,1,.17-3H56v8Z"/><polygon points="58 37 56 35 56 37 58 37"/><path d="M38.45,114.32l-.39-.19Z"/><path d="M39.16,114.6l-.47-.17Z"/><path d="M35,87.9c.08-.14.17-.28.26-.42C35.12,87.62,35,87.76,35,87.9Z"/><path d="M34.39,89.17l.15-.4Z"/><path d="M38.06,84.87l.39-.19Z"/><path d="M36.18,112.74l-.39-.43Z"/><path d="M37.46,85.22l.36-.22Z"/><path d="M38.69,84.57l.47-.17Z"/><path d="M34.07,90.6c0-.16,0-.31.07-.47C34.11,90.29,34.09,90.44,34.07,90.6Z"/><path d="M34,108.16a5.85,5.85,0,0,1,0-.73A5.85,5.85,0,0,0,34,108.16Z"/><path d="M35.31,87.31c.13-.19.27-.37.41-.55C35.58,86.94,35.44,87.12,35.31,87.31Z"/><path d="M35.79,86.69l.39-.43Z"/><path d="M37.82,114l-.36-.22Z"/><path d="M37.23,113.63l-.33-.26Z"/><path d="M36.69,113.21l-.34-.3Z"/><path d="M34,91.57a5.85,5.85,0,0,1,0-.73A5.85,5.85,0,0,0,34,91.57Z"/><path d="M34.31,109.56c0-.14-.08-.28-.11-.42C34.23,109.28,34.27,109.42,34.31,109.56Z"/><path d="M34.14,108.87c0-.16,0-.31-.07-.47C34.09,108.56,34.11,108.71,34.14,108.87Z"/><path d="M34.54,110.23l-.15-.4Z"/><path d="M36.9,85.63l.33-.26Z"/><path d="M40,84.16l-.66.17.66-.17Z"/><path d="M34.2,89.86c0-.14.07-.28.11-.42C34.27,89.58,34.23,89.72,34.2,89.86Z"/><path d="M36.35,86.09l.34-.3Z"/><path d="M35.72,112.24c-.14-.18-.28-.36-.41-.55C35.44,111.88,35.58,112.06,35.72,112.24Z"/><path d="M34.84,110.87c-.07-.13-.13-.26-.19-.39C34.71,110.61,34.77,110.74,34.84,110.87Z"/><path d="M46,115H41.57a7.81,7.81,0,0,1-2.23-.33l.66.17v19.67h6Z"/><path d="M35.21,111.52c-.09-.14-.18-.28-.26-.42C35,111.24,35.12,111.38,35.21,111.52Z"/><path d="M34.65,88.52c.06-.13.12-.26.19-.39C34.77,88.26,34.71,88.38,34.65,88.52Z"/><polygon points="46 90 41.56 90 46 90 46 90"/><path d="M46,115v-6H41.57A1.57,1.57,0,0,1,40,107.43V91.57A1.57,1.57,0,0,1,41.57,90H40V84.16l-.66.17-.18.07-.47.17-.24.11-.39.19-.24.13-.36.22-.23.15-.33.26-.21.16-.34.3-.17.17-.39.43-.07.07c-.14.18-.28.36-.41.55l-.1.17c-.09.14-.18.28-.26.42a1.63,1.63,0,0,0-.11.23c-.07.13-.13.26-.19.39a2.72,2.72,0,0,0-.11.25l-.15.4c0,.09,0,.18-.08.27s-.08.28-.11.42l-.06.27c0,.16,0,.31-.07.47a2,2,0,0,0,0,.24,5.85,5.85,0,0,0,0,.73v15.86a5.85,5.85,0,0,0,0,.73,2,2,0,0,0,0,.24c0,.16,0,.31.07.47l.06.27c0,.14.07.28.11.42s0,.18.08.27l.15.4a2.72,2.72,0,0,0,.11.25c.06.13.12.26.19.39a1.63,1.63,0,0,0,.11.23c.08.14.17.28.26.42l.1.17c.13.19.27.37.41.55l.07.07.39.43.17.17.34.3.21.16.33.26.23.15.36.22.24.13.39.19.24.11.47.17.18.07a7.81,7.81,0,0,0,2.23.33Z"/><polygon points="62 38 59 38 62 41 62 38"/><path d="M59.28,84.07a7.74,7.74,0,0,1,2.72.86V41l-3-3H58l-2,2V84h2.43A6,6,0,0,1,59.28,84.07Z"/><polygon points="56 38 56 40 58 38 56 38"/><polygon points="58.34 90 56 89.7 56 84 46 84 46 90 58.34 90"/><path d="M58.34,90h0l3.65.46V84.93a7.74,7.74,0,0,0-2.72-.86,6,6,0,0,0-.85-.07H56v5.71Z"/><rect x="40" y="35" width="6" height="2"/><rect x="40" y="37" width="6" height="1"/><polygon points="40 34 40 35 46 35 46 32 46 26 40 26 40 32 40 34"/><path d="M168.85,145.1l1-.52Z"/><path d="M170.78,144.09c.34-.18.66-.38,1-.57C171.44,143.71,171.12,143.91,170.78,144.09Z"/><path d="M174.48,141.76l.93-.69Z"/><path d="M172.66,143c.33-.21.64-.42,1-.64C173.3,142.56,173,142.77,172.66,143Z"/><path d="M40.22,145.58c-.41-.18-.81-.38-1.22-.58C39.41,145.2,39.81,145.4,40.22,145.58Z"/><path d="M35.92,143.33c-.41-.25-.81-.52-1.22-.78C35.11,142.81,35.51,143.08,35.92,143.33Z"/><path d="M38,144.52c-.41-.21-.81-.44-1.21-.67C37.23,144.08,37.63,144.31,38,144.52Z"/><path d="M32.61,141.07c.42.32.84.64,1.28.94C33.45,141.71,33,141.39,32.61,141.07Z"/><path class="cls-6" d="M23.14,34H40V32H25.89A2.9,2.9,0,0,0,23.14,34Z"/><path class="cls-6" d="M24.73,133.16l-.49-.68-.51-.74c-.16-.23-.31-.46-.46-.7l-.48-.75-.43-.72-.44-.77-.4-.74c-.13-.26-.27-.52-.4-.79l-.37-.75c-.12-.27-.24-.54-.37-.81l-.33-.76-.33-.83-.3-.77-.3-.85c-.09-.26-.17-.52-.26-.77s-.17-.59-.26-.88l-.23-.77c-.08-.3-.15-.6-.22-.9s-.13-.52-.19-.78-.13-.61-.19-.92-.11-.51-.15-.77-.11-.64-.16-1-.08-.49-.11-.74-.08-.69-.12-1-.05-.46-.07-.7-.06-.76-.08-1.15c0-.19,0-.39,0-.58,0-.58,0-1.16,0-1.75V40h-.13A10.89,10.89,0,0,0,6,50.87v99.26A10.89,10.89,0,0,0,16.87,161H26V134.78l-.2-.25-.52-.65Z"/><path d="M17.35,115c0,.25.07.49.11.74C17.42,115.5,17.38,115.26,17.35,115Z"/><path d="M20.75,126.52l.37.75Z"/><path d="M24.24,132.48l.49.68Z"/><path d="M17.62,116.71c0,.26.1.51.15.77C17.72,117.22,17.66,117,17.62,116.71Z"/><path d="M20.05,125l.33.76Z"/><path d="M18,118.4c.06.26.12.52.19.78C18.08,118.92,18,118.66,18,118.4Z"/><path d="M18.37,120.08l.23.77Z"/><path d="M21.52,128.06l.4.74Z"/><path d="M19.42,123.35l.3.77Z"/><path d="M18.86,121.73c.09.25.17.51.26.77C19,122.24,19,122,18.86,121.73Z"/><path d="M17,111.55c0,.19,0,.39,0,.58C17.07,111.94,17.05,111.74,17,111.55Z"/><path d="M25.8,134.53l-.52-.65Z"/><path d="M17.16,113.28c0,.24.05.47.07.7C17.21,113.75,17.18,113.52,17.16,113.28Z"/><path d="M23.27,131c.15.24.3.47.46.7C23.57,131.51,23.42,131.28,23.27,131Z"/><path d="M22.36,129.57l.43.72Z"/><path d="M17.91,40H17v3.89A8.77,8.77,0,0,1,17.91,40Z"/><path d="M17.46,115.75c.05.32.1.64.16,1C17.56,116.39,17.51,116.07,17.46,115.75Z"/><path d="M17,109.8c0,.59,0,1.17,0,1.75C17,111,17,110.39,17,109.8Z"/><path d="M17.08,112.13c0,.39,0,.77.08,1.15C17.12,112.9,17.1,112.52,17.08,112.13Z"/><path d="M23.73,116.7c-.06-.31-.13-.62-.19-.93C23.6,116.08,23.67,116.39,23.73,116.7Z"/><path d="M18.15,119.18c.07.3.14.6.22.9C18.29,119.78,18.22,119.48,18.15,119.18Z"/><path d="M17.77,117.48c.06.31.12.62.19.92C17.89,118.1,17.83,117.79,17.77,117.48Z"/><path d="M23.43,115.1c0-.27-.09-.53-.12-.8C23.34,114.57,23.39,114.83,23.43,115.1Z"/><path d="M23.06,111.72l0-.41Z"/><path d="M23.18,113.23c0-.14,0-.28,0-.42C23.15,113,23.17,113.09,23.18,113.23Z"/><path d="M21.92,128.8l.44.77Z"/><path d="M22.79,130.29l.48.75Z"/><path d="M24.73,133.16l.55.72Z"/><path d="M23.73,131.74l.51.74Z"/><path d="M21.12,127.27c.13.27.27.53.4.79C21.39,127.8,21.25,127.54,21.12,127.27Z"/><path d="M19.12,122.5l.3.85Z"/><path d="M18.6,120.85c.09.29.17.59.26.88C18.77,121.44,18.69,121.14,18.6,120.85Z"/><path d="M20.38,125.71c.13.27.25.54.37.81C20.63,126.25,20.51,126,20.38,125.71Z"/><path d="M19.72,124.12l.33.83Z"/><path d="M17.23,114c0,.34.07.69.12,1C17.3,114.67,17.27,114.32,17.23,114Z"/><path d="M33.5,134l-.5-.47Z"/><path d="M37.94,137.5l-.5-.33Z"/><path d="M35.43,135.68l-.37-.31Z"/><path d="M175.18,133.35l-.48.45Z"/><path d="M28.81,128.53l-.3-.42Z"/><path d="M34.7,142.55c-.27-.18-.55-.35-.81-.54C34.15,142.2,34.43,142.37,34.7,142.55Z"/><path d="M29.63,129.68c-.09-.11-.18-.22-.26-.34C29.45,129.46,29.54,129.57,29.63,129.68Z"/><path d="M30.49,130.78l-.21-.24Z"/><polygon points="29 133.68 31.25 131.7 31.25 131.7 29 133.68"/><path d="M160.76,145h-5.52a2.25,2.25,0,0,1-1.74-.86l3.86,4.86h-7.47a8.1,8.1,0,0,0,5.35,2h5.52a8.26,8.26,0,0,0,7.84-5.77l.25-.13c-.56.27-1.13.54-1.71.78l-4.52,1.93.35-4.9,0-.28v-.15l0,.44A2.23,2.23,0,0,1,160.76,145Z"/><path d="M171.17,136.76l-.3.2Z"/><path d="M169.85,144.58c.31-.16.63-.32.93-.49C170.48,144.26,170.16,144.42,169.85,144.58Z"/><path d="M169,138.2l.28-.19-.28.17Z"/><path d="M173.42,135l-.47.4Z"/><path d="M39,145c-.32-.15-.65-.31-1-.48C38.35,144.69,38.68,144.85,39,145Z"/><path d="M36.83,143.85l-.91-.52Z"/><path d="M176,140.63v0l-.59.46Z"/><path d="M173.62,142.34c.29-.19.58-.38.86-.58C174.2,142,173.91,142.15,173.62,142.34Z"/><path d="M171.77,143.52l.89-.54Z"/><path d="M40,138.77h0l-.35-.2C39.77,138.63,39.88,138.71,40,138.77Z"/><path d="M28.06,127.4c-.11-.19-.23-.37-.35-.55C27.83,127,28,127.21,28.06,127.4Z"/><path d="M55.5,144.14h0a2.23,2.23,0,0,1-1.74.87H48.24a2.2,2.2,0,0,1-2.19-1.91v0h0l.77,5.12L42,146.33c-.6-.23-1.18-.48-1.77-.75l.36.17A8.14,8.14,0,0,0,48.24,151h5.52a8.1,8.1,0,0,0,5.35-2H51.64Z"/><path d="M24.91,120.86c-.09-.25-.19-.51-.27-.77C24.72,120.35,24.82,120.61,24.91,120.86Z"/><path d="M25.41,122.19c-.09-.23-.19-.46-.28-.7C25.22,121.73,25.32,122,25.41,122.19Z"/><path d="M24.46,119.5c-.09-.28-.18-.55-.25-.83C24.28,119,24.37,119.22,24.46,119.5Z"/><path d="M24.06,118.1c-.07-.29-.15-.58-.22-.87C23.91,117.52,24,117.81,24.06,118.1Z"/><path d="M32,161V140.62c.2.16.41.3.61.45a39,39,0,0,1-5.86-5.41h0c-.33-.37-.64-.75-.95-1.13l.2.25V161H16.87A10.89,10.89,0,0,1,6,150.13V50.87A10.89,10.89,0,0,1,16.87,40H17V34.89a8.69,8.69,0,0,1,.05-.89h-.18A16.89,16.89,0,0,0,0,50.87v99.26A16.89,16.89,0,0,0,16.87,167H176v-6Z"/><path d="M26,123.51c-.09-.21-.19-.42-.29-.64C25.78,123.09,25.88,123.3,26,123.51Z"/><path d="M27.33,126.16c-.12-.2-.24-.4-.35-.61C27.09,125.76,27.21,126,27.33,126.16Z"/><path d="M26.61,124.82l-.31-.59Z"/><path d="M176.73,131.71c-.5.57-1,1.11-1.55,1.64l-.48.45c-.41.4-.84.79-1.28,1.17l-.47.4c-.58.48-1.17.95-1.78,1.39l-.3.2q-.78.56-1.59,1l-.28.19v0a31.09,31.09,0,0,1-4.21,2.18l-1.69.72-.1,1.4v.15l0,.28-.35,4.9,4.52-1.93c.58-.24,1.15-.51,1.71-.78l1-.52c.31-.16.63-.32.93-.49s.66-.38,1-.57l.89-.54c.33-.21.64-.42,1-.64s.58-.38.86-.58l.93-.69.59-.46v-8.07Z"/><path d="M34.7,142.55c.41.26.81.53,1.22.78l.91.52c.4.23.8.46,1.21.67s.64.33,1,.48.81.4,1.22.58c.59.27,1.17.52,1.77.75l4.82,1.86L46,143.07h0l-.25-1.69-1.62-.63a33.15,33.15,0,0,1-4.17-2h0c-.12-.06-.23-.14-.35-.21-.58-.34-1.15-.69-1.71-1.06l-.5-.33c-.69-.47-1.36-1-2-1.49l-.37-.31q-.8-.66-1.56-1.38l-.5-.47c-.6-.59-1.19-1.19-1.75-1.82l-2.25,2-2.25,2a39,39,0,0,0,5.86,5.41c.42.32.84.64,1.28.94C34.15,142.2,34.43,142.37,34.7,142.55Z"/><path d="M62,143H56.4l-.9,1.13h0L51.64,149H126a3,3,0,0,0,3-3h0a3,3,0,0,0-3-3Z"/><path d="M153.5,144.14h0l-.9-1.13H141a3,3,0,0,0-3,3h0a3,3,0,0,0,3,3h16.36Z"/><path d="M29,133.68l2.25-2v0c-.26-.29-.5-.59-.75-.9l-.21-.24c-.22-.29-.44-.57-.65-.86-.09-.11-.18-.22-.26-.34s-.38-.54-.56-.81l-.3-.42-.45-.71c-.11-.19-.23-.37-.35-.55s-.26-.46-.38-.69-.24-.4-.35-.61-.25-.48-.37-.73l-.31-.59-.33-.72c-.09-.21-.19-.42-.29-.64l-.27-.68c-.09-.23-.19-.46-.28-.7s-.15-.42-.22-.63-.19-.51-.27-.77-.12-.39-.18-.59-.18-.55-.25-.83-.1-.38-.15-.57-.15-.58-.22-.87-.07-.35-.11-.53-.13-.62-.19-.93-.07-.45-.11-.67-.09-.53-.12-.8-.09-.71-.13-1.07c0-.14,0-.28,0-.42,0-.36-.06-.72-.08-1.09l0-.41c0-.5,0-1,0-1.51v-9H17v9c0,.59,0,1.17,0,1.75,0,.19,0,.39,0,.58,0,.39,0,.77.08,1.15s.05.47.07.7.07.69.12,1,.07.49.11.74.1.64.16,1,.1.51.15.77.12.62.19.92.12.52.19.78.14.6.22.9l.23.77c.09.29.17.59.26.88s.17.51.26.77l.3.85.3.77.33.83.33.76c.13.27.25.54.37.81l.37.75c.13.27.27.53.4.79l.4.74.44.77.43.72.48.75c.15.24.3.47.46.7l.51.74.49.68.55.72.52.65c.31.38.62.76.95,1.13h0Z"/><polygon points="26.75 135.66 26.75 135.66 29 133.68 26.75 135.66"/><path d="M25.89,32H40V26H25.89a8.89,8.89,0,0,0-8.84,8H23A3.08,3.08,0,0,1,25.89,32Z"/><path d="M17,40h.91A8.94,8.94,0,0,1,23,35.49V34H17.05a8.69,8.69,0,0,0-.05.89Z"/><path d="M17,100.8h6V40H17.91A8.77,8.77,0,0,0,17,43.89Z"/><path d="M23,35.49A8.94,8.94,0,0,0,17.91,40H23Z"/><polygon points="46 38 40 38 40 41 46 40 46 38"/><path d="M41.57,84H46V59a3,3,0,0,0-3-3h0a3,3,0,0,0-3,3V84.16h0A8.12,8.12,0,0,1,41.57,84Z"/><path d="M46,40l-6,1v3a3,3,0,0,0,3,3h0a3,3,0,0,0,3-3Z"/><path d="M40,84.16V90h6V84H41.57A8.12,8.12,0,0,0,40,84.16Z"/><path d="M190.38,116.71c0,.26-.1.53-.15.79C190.28,117.24,190.34,117,190.38,116.71Z"/><path d="M190,118.4c-.06.27-.13.53-.19.8C189.91,118.93,190,118.67,190,118.4Z"/><path d="M182.72,133.87l-.52.66Z"/><path d="M190.65,115c0,.26-.08.51-.12.77C190.57,115.51,190.62,115.26,190.65,115Z"/><path d="M191,111.55c0,.2,0,.39,0,.59C190.93,111.94,191,111.75,191,111.55Z"/><path d="M190.84,113.28c0,.24-.05.48-.07.72C190.79,113.76,190.82,113.52,190.84,113.28Z"/><path d="M185.64,129.56c-.14.25-.29.49-.44.74C185.35,130.05,185.5,129.81,185.64,129.56Z"/><path d="M186.48,128.05c-.13.26-.27.51-.41.76C186.21,128.56,186.35,128.31,186.48,128.05Z"/><path d="M184.74,131l-.48.72Z"/><path d="M183.76,132.47l-.5.69Z"/><path d="M188.58,123.34c-.1.27-.2.53-.31.8C188.38,123.87,188.48,123.61,188.58,123.34Z"/><path d="M189.63,120.07l-.24.8Z"/><path d="M188,124.94l-.34.79Z"/><path d="M187.25,126.51c-.12.26-.25.52-.38.78C187,127,187.13,126.77,187.25,126.51Z"/><path d="M189.14,121.72l-.27.8Z"/><path d="M186.07,128.81c-.14.25-.28.5-.43.75C185.79,129.31,185.93,129.06,186.07,128.81Z"/><path d="M184.26,131.75l-.5.72Z"/><path d="M185.2,130.3c-.15.25-.31.49-.46.73C184.89,130.79,185.05,130.55,185.2,130.3Z"/><path d="M182,134.77h0l.2-.25Z"/><path d="M202,150.13A10.87,10.87,0,0,1,191.13,161H182v6h9.13A16.87,16.87,0,0,0,208,150.13V94a3,3,0,0,0-3-3h0a3,3,0,0,0-3,3Z"/><path d="M183.26,133.16c-.17.24-.36.48-.54.71C182.9,133.64,183.09,133.4,183.26,133.16Z"/><path d="M176.75,131.7Z"/><path d="M187.61,125.73l-.36.78Z"/><path d="M186.87,127.29c-.13.25-.25.51-.39.76C186.62,127.8,186.74,127.54,186.87,127.29Z"/><path d="M190.77,114c0,.33-.07.67-.12,1C190.7,114.67,190.73,114.33,190.77,114Z"/><path d="M190.53,115.77c0,.31-.09.63-.15.94C190.44,116.4,190.49,116.08,190.53,115.77Z"/><path d="M188.27,124.14c-.1.27-.21.53-.32.8C188.06,124.67,188.17,124.41,188.27,124.14Z"/><path d="M191,109.8c0,.59,0,1.17,0,1.75C191,111,191,110.39,191,109.8Z"/><path d="M190.92,112.14c0,.38,0,.76-.08,1.14C190.88,112.9,190.9,112.52,190.92,112.14Z"/><path d="M190.23,117.5c-.06.3-.12.6-.19.9C190.11,118.1,190.17,117.8,190.23,117.5Z"/><path d="M189.39,120.87c-.08.29-.16.57-.25.85C189.23,121.44,189.31,121.16,189.39,120.87Z"/><path d="M189.85,119.2c-.07.29-.14.58-.22.87C189.71,119.78,189.78,119.49,189.85,119.2Z"/><path d="M188.87,122.52c-.09.28-.19.55-.29.82C188.68,123.07,188.78,122.8,188.87,122.52Z"/><path d="M191,40h.13A10.87,10.87,0,0,1,202,50.87V79a3,3,0,0,0,3,3h0a3,3,0,0,0,3-3V50.87A16.87,16.87,0,0,0,191.13,34H191v6Z"/><path d="M176.73,131.71h0Z"/><path d="M182.72,133.87c.18-.23.37-.47.54-.71l.5-.69.5-.72.48-.72c.15-.24.31-.48.46-.73s.3-.49.44-.74.29-.5.43-.75.28-.5.41-.76.26-.51.39-.76.26-.52.38-.78l.36-.78.34-.79c.11-.27.22-.53.32-.8s.21-.53.31-.8.2-.54.29-.82l.27-.8c.09-.28.17-.56.25-.85l.24-.8c.08-.29.15-.58.22-.87s.13-.53.19-.8.13-.6.19-.9.11-.53.15-.79.11-.63.15-.94.09-.51.12-.77.08-.67.12-1,0-.48.07-.72.06-.76.08-1.14c0-.2,0-.39,0-.59,0-.58,0-1.16,0-1.75v-9h-6v9a33.19,33.19,0,0,1-8.25,21.9h0l5.25-6v9.06l.2-.24Z"/><polygon points="179 133.68 176.75 131.7 176.75 131.7 179 133.68"/><path d="M182,134.78h0l-.75.89h0a39.65,39.65,0,0,1-5.25,5V167h6V134.78Z"/><path d="M176.75,131.7h0l-.73.83v8.07a39.65,39.65,0,0,0,5.25-5l-2.25-2Z"/><path d="M176.75,131.7l2.25,2,2.25,2h0l.75-.89v-9.06Z"/><polygon points="179 133.68 181.25 135.66 181.25 135.66 179 133.68"/><path d="M182.11,32a2.9,2.9,0,0,1,2.75,2H191a8.89,8.89,0,0,0-8.84-8H169v6Z"/><path d="M191,34H191a8.69,8.69,0,0,1,.05.89Z"/><rect x="185" y="40" width="6" height="3.89"/><polygon points="185 34 184.86 34 185 40 185 34"/><path d="M185,40h6V34.89A8.69,8.69,0,0,0,191,34H185Z"/><path d="M150,29h-5v3h2V30h6v2h10V26H150.67a28,28,0,0,1,.29,3Z"/><polygon points="144 29 144 32 144.98 32 144.98 29 144.98 29 144 29"/><path d="M144,29h1a20.76,20.76,0,0,0-.35-3H144Z"/><rect x="147" y="30" width="6" height="2"/><polygon points="163 34 169 34 169 32 169 26 163 26 163 32 163 34"/><rect x="163" y="34" width="6" height="1"/><rect x="185" y="43.89" width="6" height="56.91"/><path d="M171.83,85.27l.1.11Z"/><path d="M170.06,113.07h0Z"/><path d="M163,114v20.11h6V113.55l.11,0a7.42,7.42,0,0,1-2.68.5Z"/><path d="M173.64,108.74a.78.78,0,0,0,0,.14A.78.78,0,0,1,173.64,108.74Z"/><path d="M171.93,111.62l-.1.11Z"/><path d="M170,83.92a.05.05,0,0,1,0,0A.05.05,0,0,0,170,83.92Z"/><path d="M173.59,88.12a.78.78,0,0,0,0,.14A.78.78,0,0,1,173.59,88.12Z"/><path d="M173.88,89.26l0,.23Z"/><path d="M172.63,110.77l-.12.15Z"/><path d="M173.24,109.73l-.09.18Z"/><path d="M170.9,84.47l.19.14Z"/><path d="M173.91,107.51l0,.23Z"/><path d="M169.12,83.5l-.12,0h0Z"/><path d="M173.15,87.09l.09.18Z"/><path d="M171.08,112.39a1.09,1.09,0,0,1-.17.13A1.09,1.09,0,0,0,171.08,112.39Z"/><path d="M172.51,86.08l.12.16Z"/><path d="M169,89h-2.57A1.57,1.57,0,0,1,168,90.57v15.86a1.57,1.57,0,0,1-1.57,1.57H163v6h3.43a7.42,7.42,0,0,0,2.68-.5,7.92,7.92,0,0,0,.94-.42h0a6.86,6.86,0,0,0,.85-.55,1.09,1.09,0,0,0,.17-.13,5.9,5.9,0,0,0,.75-.66l.1-.11a6.53,6.53,0,0,0,.58-.7l.12-.15a9.35,9.35,0,0,0,.52-.86l.09-.18a8.93,8.93,0,0,0,.35-.85.78.78,0,0,1,0-.14,8.1,8.1,0,0,0,.24-1l0-.23a6.38,6.38,0,0,0,.09-1.08V90.57a6.38,6.38,0,0,0-.09-1.08l0-.23a8.1,8.1,0,0,0-.24-1,.78.78,0,0,1,0-.14,8.93,8.93,0,0,0-.35-.85l-.09-.18a8,8,0,0,0-.52-.85l-.12-.16a6.53,6.53,0,0,0-.58-.7l-.1-.11a7.75,7.75,0,0,0-.74-.66l-.19-.14a7.67,7.67,0,0,0-.82-.53.05.05,0,0,0,0,0,7,7,0,0,0-.92-.42l-.12,0Z"/><rect x="163" y="35" width="6" height="2"/><rect x="163" y="37" width="6" height="1"/><polygon points="147 38 147 41 150 38 147 38"/><path d="M149.57,83H153V40l-2-2h-1l-3,3V83.45h0A7.51,7.51,0,0,1,149.57,83Z"/><polygon points="153 40 153 38 151 38 153 40"/><rect x="153" y="83" width="10" height="6"/><path d="M147,83.46V89h6V83h-3.43A7.51,7.51,0,0,0,147,83.46Z"/><path d="M169,83.46h0V41h-6V83h3.43A7.51,7.51,0,0,1,169,83.46Z"/><path d="M166.43,89H169V83.46a7.51,7.51,0,0,0-2.57-.46H163v6Z"/><rect x="163" y="40" width="6" height="1"/><rect x="163" y="38" width="6" height="2"/><path d="M71.27,8.09l1.46,5.82a10.08,10.08,0,0,0-1.64.64A5.36,5.36,0,0,0,76.37,19h55.26a5.36,5.36,0,0,0,5-3.56,11,11,0,0,0-1.42-.54l1.48-5.81.27.08a15.82,15.82,0,0,1,3,1.21v-2A8.37,8.37,0,0,0,131.63,0H76.37A8.34,8.34,0,0,0,68,8.05l0,1.34a15.94,15.94,0,0,1,3-1.23ZM76.37,6h55.26a2.37,2.37,0,0,1,2.31,1.86L131.89,16a1.1,1.1,0,0,1-.26,0H76.34L74.2,7.44A2.36,2.36,0,0,1,76.37,6Z"/><path d="M76.37,22h55.26a8.35,8.35,0,0,0,7.61-5,13.75,13.75,0,0,0-2.57-1.56,5.36,5.36,0,0,1-5,3.56H76.37a5.36,5.36,0,0,1-5.28-4.45,13.5,13.5,0,0,0-2.65,1.7A8.34,8.34,0,0,0,76.37,22Z"/><path d="M63.21,26a14.61,14.61,0,0,1,5.23-9.75,8.16,8.16,0,0,1-.3-1.18l-.39-2.23,1.44-.7-.08-.34-1.25.34L68,9.39c-4.46,2.32-9.81,7.47-10.8,16.61h6Z"/><path d="M63.21,26H62v3h1A21.62,21.62,0,0,1,63.21,26Z"/><path d="M59,29h3V26H57.17A28.69,28.69,0,0,0,57,29Z"/><path d="M69.11,11.8l.08.34-1.44.7.39,2.23a8.16,8.16,0,0,0,.3,1.18,13.5,13.5,0,0,1,2.65-1.7,5.52,5.52,0,0,1-.09-.92V8.37c0-.07,0-.14,0-.21a15.94,15.94,0,0,0-3,1.23l-.11,2.75Z"/><path d="M71.27,8.09,71,8.16c0,.07,0,.14,0,.21v5.26a5.52,5.52,0,0,0,.09.92,10.08,10.08,0,0,1,1.64-.64Z"/><path d="M138.88,12.8l-.08.32,1.62.74-.93,2.6c-.07.18-.17.36-.25.54a14.33,14.33,0,0,1,5.39,9h6A20.52,20.52,0,0,0,140,10.38v2.73Z"/><path d="M145,29h6a28,28,0,0,0-.29-3H145Z"/><path d="M145,29V26h-.35a20.76,20.76,0,0,1,.35,3Z"/><path d="M137,13.63a5.43,5.43,0,0,1-.33,1.81A13.75,13.75,0,0,1,139.24,17c.08-.18.18-.36.25-.54l.93-2.6-1.62-.74.08-.32,1.12.31V10.38a15.82,15.82,0,0,0-3-1.21Z"/><path d="M137,9.17l-.27-.08-1.48,5.81a11,11,0,0,1,1.42.54,5.43,5.43,0,0,0,.33-1.81Z"/></g></g></g></svg>