<svg xmlns="http://www.w3.org/2000/svg" viewBox="0 0 208 171.77"><defs><style>.cls-1{fill:#eff8f9;}.cls-2{fill:#fed299;}.cls-3{fill:#f06c57;}.cls-4{fill:none;}</style></defs><g id="Calque_2" data-name="Calque 2"><g id="animaux"><g id="Calque_19" data-name="Calque 19"><polygon class="cls-1" points="25 23.18 38 7.77 44 2.77 49 6.06 68.54 26.76 142.81 26.76 163 3.77 169 3.77 189 26.76 201 30.77 205 40.77 205 103.17 205 158.32 201.14 165.77 187.25 170.51 13 169.77 5 161.77 3 155.77 3 74.61 4 34.77 11 27.77 22 25.77 25 23.18"/><polygon class="cls-2" points="49 166.45 51.01 50.1 60 44.77 71.15 44.77 76.01 51.67 84.66 45.77 95.36 44.77 104 52.41 113 43.55 123 43.55 129 51.13 131.91 51.91 137.66 45.77 146.97 43.55 154 49.58 157 58.14 156 167.51 49 166.45"/><path class="cls-3" d="M103,102.77l-22,21v10.76l1.54,2.19a8.6,8.6,0,0,0,3.81,3h0a8.57,8.57,0,0,0,5.41.31l8.24-2.25,4.5-2.94,7.5,4.94h7l6-4,3-7-2.26-7.7Z"/><ellipse class="cls-3" cx="70" cy="102.77" rx="6" ry="10"/><ellipse class="cls-3" cx="91" cy="84.77" rx="6" ry="10"/><ellipse class="cls-3" cx="118" cy="84.77" rx="6" ry="10"/><ellipse class="cls-3" cx="139" cy="104.77" rx="6" ry="10"/></g><g id="Calque_11" data-name="Calque 11"><path class="cls-4" d="M98.32,49c.1.11.21.22.3.33C98.53,49.19,98.42,49.08,98.32,49Z"/><path class="cls-4" d="M96.85,47.67l.37.27Z"/><path class="cls-4" d="M97.62,48.28c.11.1.23.2.33.31C97.85,48.48,97.73,48.38,97.62,48.28Z"/><path class="cls-4" d="M99.51,50.54c.08.12.16.25.23.38C99.67,50.79,99.59,50.66,99.51,50.54Z"/><path class="cls-4" d="M99,49.72c.09.12.19.24.27.36C99.14,50,99,49.84,99,49.72Z"/><path class="cls-4" d="M100.69,53.32c0,.13.07.26.1.39C100.76,53.58,100.72,53.45,100.69,53.32Z"/><path class="cls-4" d="M100.38,52.33c.05.14.11.27.15.41C100.49,52.6,100.43,52.47,100.38,52.33Z"/><path class="cls-4" d="M62.41,45.91a10.71,10.71,0,0,0-1.64.36,9.8,9.8,0,0,0-6.55,7.41A10,10,0,0,1,62.41,45.91Z"/><path class="cls-4" d="M100,51.41l.19.39Z"/><path class="cls-4" d="M95.15,46.68l.42.2Z"/><path class="cls-4" d="M90.33,45.79l-.18,0,.5,0Z"/><path class="cls-4" d="M91.21,45.78l.5,0Z"/><path class="cls-4" d="M92.25,45.85l.48.08Z"/><path class="cls-4" d="M89.19,45.94l.47-.07Z"/><path class="cls-4" d="M96,47.13l.39.24Z"/><path class="cls-4" d="M100.89,54.38l.06.34Z"/><path class="cls-4" d="M94.23,46.31l.44.16Z"/><path class="cls-4" d="M93.26,46l.46.12Z"/><path class="cls-4" d="M146.26,46l.46.12Z"/><path class="cls-4" d="M152,49.72l.27.36Z"/><path class="cls-4" d="M152.51,50.53c.08.13.16.25.23.38C152.67,50.78,152.59,50.66,152.51,50.53Z"/><path class="cls-4" d="M141.32,46.14l.26-.07Z"/><path class="cls-4" d="M150.62,48.28l.33.31Z"/><path class="cls-4" d="M153.68,53.32c0,.13.08.26.11.39C153.76,53.58,153.72,53.45,153.68,53.32Z"/><path class="cls-4" d="M149.85,47.67l.37.27Z"/><path class="cls-4" d="M153.89,54.38c0,.12,0,.23.05.34C153.93,54.61,153.91,54.5,153.89,54.38Z"/><path class="cls-4" d="M153,51.41l.19.39Z"/><path class="cls-4" d="M153.38,52.33c.05.14.11.27.15.4C153.49,52.6,153.43,52.47,153.38,52.33Z"/><path class="cls-4" d="M151.32,49l.3.33Z"/><path class="cls-4" d="M144.21,45.78l.5,0Z"/><path class="cls-4" d="M145.25,45.85l.48.08Z"/><path class="cls-4" d="M143.33,45.79l-.18,0,.5,0Z"/><path class="cls-4" d="M149,47.13l.39.24Z"/><path class="cls-4" d="M142.19,45.94l.47-.07Z"/><path class="cls-4" d="M148.15,46.68l.42.2Z"/><path class="cls-4" d="M147.22,46.31l.44.16Z"/><ellipse class="cls-4" cx="118" cy="83.77" rx="5" ry="8"/><path class="cls-4" d="M69.81,47.64c.11.07.21.16.32.24C70,47.8,69.92,47.71,69.81,47.64Z"/><path class="cls-4" d="M71.46,49.13l.21.22Z"/><path class="cls-4" d="M67.94,46.58c.09,0,.16.08.25.12C68.1,46.66,68,46.61,67.94,46.58Z"/><path class="cls-4" d="M153.88,54.3c0-.19,0-.39-.09-.58s-.09-.35-.14-.53-.07-.29-.12-.44-.13-.38-.21-.57-.08-.23-.13-.35-.18-.39-.28-.59l-.15-.29c-.11-.19-.23-.38-.35-.57a2.13,2.13,0,0,0-.16-.25c-.13-.19-.27-.37-.41-.55l-.18-.23c-.14-.17-.3-.34-.46-.5l-.2-.21c-.16-.16-.32-.3-.49-.45l-.24-.2c-.17-.14-.34-.26-.52-.39l-.27-.19-.53-.32-.33-.18-.53-.26-.38-.16-.52-.19-.45-.14-.5-.13-.5-.1-.5-.08-.53-.05-.5,0a5.28,5.28,0,0,0-.56,0l-.5,0-.48.06-.49.07-.56.13-.32.08a10.35,10.35,0,0,0-7.3,10v9.37a1.19,1.19,0,0,1-2.08.77l0,0a1.18,1.18,0,0,0-1.78,0l0,0a1.19,1.19,0,0,1-2.08-.77V54.77a10,10,0,0,0-10.67-10A10.22,10.22,0,0,0,108,55.11V65.47a1.18,1.18,0,0,1-2.06.8l-.52-.63a1.17,1.17,0,0,0-1.84,0l-.52.63a1.18,1.18,0,0,1-2.06-.8v-9.7c0-.35,0-.7,0-1,0-.14,0-.28-.07-.42s0-.4-.09-.59-.09-.35-.14-.52-.07-.3-.11-.44-.14-.39-.22-.58-.08-.23-.13-.35a6.19,6.19,0,0,0-.28-.58L99.76,51c-.11-.2-.23-.39-.35-.58s-.1-.17-.16-.25-.27-.37-.41-.55l-.18-.23c-.14-.17-.3-.33-.45-.5L98,48.64c-.16-.16-.32-.3-.49-.45l-.24-.2-.51-.39-.28-.19L96,47.09l-.33-.18-.53-.26-.39-.16-.51-.19-.45-.14-.5-.13-.5-.1-.49-.08-.54-.05-.5,0a5.28,5.28,0,0,0-.56,0l-.5,0-.48.06-.49.07-.56.13-.32.08a10.35,10.35,0,0,0-7.3,10v9.36a1.18,1.18,0,0,1-2.06.8l-.52-.63a1.17,1.17,0,0,0-1.84,0l-.52.63a1.18,1.18,0,0,1-2.06-.8v-9.7a10.55,10.55,0,0,0-.07-1.13c0-.12,0-.25-.05-.37s-.08-.48-.13-.71l-.12-.44q-.07-.3-.18-.6c0-.15-.11-.3-.17-.45a5.22,5.22,0,0,0-.24-.54c-.07-.15-.13-.3-.21-.45s-.19-.33-.3-.5a7.78,7.78,0,0,0-.47-.7c-.12-.17-.23-.33-.36-.49s-.25-.28-.38-.41L71,48.62l-.41-.38-.38-.31a4.59,4.59,0,0,0-.44-.33l-.44-.29c-.15-.09-.29-.19-.45-.27a4.53,4.53,0,0,0-.54-.27l-.4-.2a8.18,8.18,0,0,0-1-.36l-.33-.08c-.24-.07-.49-.13-.74-.18s-.27,0-.41-.06a5.51,5.51,0,0,0-.71-.08c-.14,0-.28,0-.43,0h-.74l-.42,0-.73.09a10,10,0,0,0-8.21,7.8l0,.14a6.46,6.46,0,0,0-.11.75,2,2,0,0,0,0,.24c0,.31,0,.62,0,.94V68.24l-.1-.08L53,165.77H153v-.64l.77-98.27a.19.19,0,0,1,0-.07q.07-.41.12-.81L154,55.77h0a9.07,9.07,0,0,0-.06-1C153.93,54.58,153.9,54.44,153.88,54.3ZM118,69.77c6.17,0,11,6.15,11,14s-4.83,14-11,14-11-6.15-11-14S111.83,69.77,118,69.77Zm-27,0c6.17,0,11,6.15,11,14s-4.83,14-11,14-11-6.15-11-14S84.83,69.77,91,69.77Zm-21,47c-6.17,0-11-6.15-11-14s4.83-14,11-14,11,6.15,11,14S76.17,116.77,70,116.77Zm69,0c-6.17,0-11-6.15-11-14s4.83-14,11-14,11,6.15,11,14S145.17,116.77,139,116.77Z"/><path class="cls-4" d="M70.65,48.32l.29.26Z"/><path class="cls-4" d="M68.9,47.06l.33.2Z"/><path class="cls-4" d="M65.48,45.89c.13,0,.26,0,.38.06C65.74,45.92,65.61,45.91,65.48,45.89Z"/><path class="cls-4" d="M88.32,46.14l.26-.07Z"/><path class="cls-4" d="M64.32,45.78c.15,0,.29,0,.43,0C64.61,45.79,64.47,45.79,64.32,45.78Z"/><path class="cls-4" d="M66.68,46.14l.25.07Z"/><path class="cls-4" d="M54.08,54.58c0-.24.06-.49.11-.73A6.13,6.13,0,0,0,54.08,54.58Z"/><ellipse class="cls-4" cx="70" cy="102.77" rx="5" ry="8"/><path class="cls-4" d="M73.64,53.15c0,.13.07.26.1.39C73.71,53.41,73.68,53.28,73.64,53.15Z"/><path class="cls-4" d="M73.88,54.29c0,.11,0,.23.05.35C73.92,54.52,73.9,54.4,73.88,54.29Z"/><ellipse class="cls-4" cx="91" cy="83.77" rx="5" ry="8"/><path class="cls-4" d="M63.16,45.81l.42,0Z"/><path class="cls-4" d="M72.31,50.2l.09.15Z"/><path class="cls-4" d="M54,55.77c0-.32,0-.63,0-.94C54,55.14,54,55.45,54,55.77Z"/><ellipse class="cls-4" cx="139" cy="102.77" rx="5" ry="8"/><path class="cls-4" d="M72.85,51.12c.06.11.11.22.16.33C73,51.34,72.91,51.23,72.85,51.12Z"/><path class="cls-4" d="M73.3,52.1l.14.38Z"/><path d="M68,29.77a2.62,2.62,0,0,1-.62-.07,3.18,3.18,0,0,0,.62.07Z"/><path d="M70,29a3,3,0,0,1-2,.73h74.81a3,3,0,0,1-2.06-.72,3,3,0,0,1-.33-4.23l.9-1H69.38l.9,1A3,3,0,0,1,70,29Z"/><path d="M160,55.79a15.91,15.91,0,0,1-.14,2.08,3.09,3.09,0,0,1,.12.62l0-2.7Z"/><polygon points="153.01 165.13 153.79 67.06 153.78 66.86 153.01 165.13"/><path d="M202,154.9a10.87,10.87,0,0,1-10.87,10.87H159v.83l.07.16a3.57,3.57,0,0,1-.11,3.52,3.38,3.38,0,0,1-3,1.49h35.13A16.87,16.87,0,0,0,208,154.9V90.77a3,3,0,0,0-3-3h0a3,3,0,0,0-3,3Z"/><path d="M190.91,29.08a3,3,0,0,1-1.91.69h2.13A10.87,10.87,0,0,1,202,40.64V75.77a3,3,0,0,0,3,3h0a3,3,0,0,0,3-3V40.64a16.87,16.87,0,0,0-16.87-16.87h-.75l.79.92A3.14,3.14,0,0,1,190.91,29.08Z"/><path d="M189,29.77a2.62,2.62,0,0,1-.62-.07,3.18,3.18,0,0,0,.62.07Z"/><path d="M48,55.77v0L47,144a3,3,0,0,1,1-.18c1.31,0,2.42,20.83,2.83,22H53l.9-97.61A16,16,0,0,1,48,55.77Z"/><path d="M45,166.77a3,3,0,0,1,.18-1H16.87A10.89,10.89,0,0,1,6,154.9V40.64A10.88,10.88,0,0,1,16.87,29.77h4.94A3,3,0,0,1,19.75,29a3,3,0,0,1-.33-4.23l.9-1H16.87A16.89,16.89,0,0,0,0,40.64V154.9a16.89,16.89,0,0,0,16.87,16.87H50A5,5,0,0,1,45,166.77Z"/><path d="M24.69,26.92a3,3,0,0,1-.79,1.88l.08-.08,3.78-4.41a3,3,0,0,0-.16-4.08h0a3,3,0,0,0-4.4.17l-2.88,3.37h1.19A3.12,3.12,0,0,1,24.69,26.92Z"/><path d="M42.55,7.06A3,3,0,0,1,44.88,6a3.27,3.27,0,0,1,2.38,1.18L65.72,28.72l.08.07a3,3,0,0,1-.8-1.87,3.15,3.15,0,0,1,3.19-3.15h1.19L51.83,3.3A9.28,9.28,0,0,0,47.45.37,9.05,9.05,0,0,0,38,3.15L33,9a3,3,0,0,0,.15,4.08h0a3,3,0,0,0,4.4-.17Z"/><path d="M65,26.77a3,3,0,0,0,.8,2,2.5,2.5,0,0,0,.29.27l.18.15a2.33,2.33,0,0,0,.34.2,1.18,1.18,0,0,0,.19.1,2.47,2.47,0,0,0,.46.15l.12,0a2.62,2.62,0,0,0,.62.07A3,3,0,0,0,70,29a3,3,0,0,0,.33-4.23l-.9-1H68A3,3,0,0,0,65,26.77Z"/><path d="M21.81,29.76l.31,0,.28,0,.28-.09.27-.1a2,2,0,0,0,.25-.14l.25-.16a1.84,1.84,0,0,0,.22-.17l.23-.22c1.09-1.18,1.27-3.21-.76-5H20.32l-1.84,2.14C18.55,28.64,20.21,29.82,21.81,29.76Z"/><path d="M145.7,26.77a3,3,0,0,1-.8,2,.6.6,0,0,1,.08-.08L163.55,7.06a3,3,0,0,1,4.6,0l18.57,21.66s.05,0,.08.07a3,3,0,0,1,2.2-5h1.38L172.7,3.15a9,9,0,0,0-13.7,0L141.32,23.77h1.38A3,3,0,0,1,145.7,26.77Z"/><path d="M140.75,29a3,3,0,0,0,2.06.72l.32,0,.27,0,.28-.09.27-.1a2,2,0,0,0,.25-.14l.25-.16a1.84,1.84,0,0,0,.22-.17l.23-.22a3,3,0,0,0-2.2-5h-1.38l-.9,1A3,3,0,0,0,140.75,29Z"/><path d="M186,26.77a3,3,0,0,0,.8,2,2.44,2.44,0,0,0,.29.27l.18.15a4.05,4.05,0,0,0,.35.21l.18.09a2.47,2.47,0,0,0,.46.15l.12,0a2.62,2.62,0,0,0,.62.07A3,3,0,0,0,191,29a3,3,0,0,0,.33-4.23l-.9-1H189A3,3,0,0,0,186,26.77Z"/><path d="M99.41,50.38c0-.08-.1-.17-.16-.25C99.31,50.21,99.36,50.3,99.41,50.38Z"/><path d="M98.84,49.58l-.18-.23Z"/><path d="M91.21,45.78H91l-.35,0A5.28,5.28,0,0,1,91.21,45.78Z"/><path d="M99.91,51.25,99.76,51Z"/><path d="M142.18,45.94l-.56.13Z"/><path d="M98,48.64l.21.21Z"/><path d="M101,55.77c0-.35,0-.7,0-1C101,55.07,101,55.42,101,55.77Z"/><path d="M100.88,54.31c0-.2,0-.4-.09-.59C100.83,53.91,100.85,54.11,100.88,54.31Z"/><path d="M100.65,53.2c0-.15-.07-.3-.11-.44C100.58,52.9,100.61,53.05,100.65,53.2Z"/><path d="M94.19,46.3l-.45-.14Z"/><path d="M93.24,46l-.5-.1Z"/><path d="M92.25,45.85l-.54-.05Z"/><path d="M96,47.09l-.33-.18Z"/><path d="M96.76,47.6l-.28-.19Z"/><path d="M97.51,48.19l-.24-.2Z"/><path d="M95.09,46.65l-.39-.16Z"/><path d="M100.32,52.18c0-.11-.08-.23-.13-.35C100.24,52,100.28,52.07,100.32,52.18Z"/><path d="M152.91,51.24l-.15-.29Z"/><path d="M151,48.64l.2.21Z"/><path d="M143.15,45.81l-.48.06Z"/><path d="M152.41,50.38a2.13,2.13,0,0,0-.16-.25A2.13,2.13,0,0,1,152.41,50.38Z"/><path d="M153.88,54.3c0-.19,0-.39-.09-.58C153.83,53.91,153.85,54.11,153.88,54.3Z"/><path d="M153.32,52.18c0-.12-.08-.23-.13-.35C153.24,52,153.28,52.06,153.32,52.18Z"/><path d="M153.65,53.19c0-.15-.07-.29-.12-.44C153.58,52.9,153.61,53,153.65,53.19Z"/><path d="M151.84,49.58l-.18-.23Z"/><path d="M146.24,46l-.5-.1Z"/><path d="M145.24,45.85l-.53-.05Z"/><path d="M144.21,45.78H144l-.35,0A5.28,5.28,0,0,1,144.21,45.78Z"/><path d="M149,47.09l-.33-.18Z"/><path d="M149.75,47.6l-.27-.19Z"/><path d="M148.09,46.65l-.38-.16Z"/><path d="M147.19,46.3l-.45-.14Z"/><path d="M150.51,48.19l-.24-.2Z"/><path d="M144,39.77a16,16,0,0,0-13,6.68,16,16,0,0,0-26.5.74,16,16,0,0,0-27,0A16,16,0,0,0,48,55.72a3,3,0,0,1,3-2.95h0a3,3,0,0,1,3,3v0c0-.32,0-.63,0-.94a2.42,2.42,0,0,1,0-.25,6.13,6.13,0,0,1,.11-.73l0-.17a9.8,9.8,0,0,1,6.55-7.41,10.71,10.71,0,0,1,1.64-.36c.25,0,.5-.08.75-.1l.42,0,.42,0h.32c.15,0,.29,0,.43,0a5.82,5.82,0,0,1,.73.08c.13,0,.26,0,.38.06.28,0,.55.12.82.19l.25.07a9.41,9.41,0,0,1,1,.37c.09,0,.16.08.25.12.24.11.48.23.71.36l.33.2c.2.12.39.24.58.38s.21.16.32.24.35.28.52.44l.29.26c.18.17.35.36.52.55l.21.22c.22.27.44.56.64.85l.09.15c.16.25.31.51.45.77s.11.22.16.33.2.43.29.65l.14.38c.07.22.14.44.2.67s.07.26.1.39.1.5.14.75,0,.23.05.35A10.55,10.55,0,0,1,74,55.77v9.7a1.18,1.18,0,0,0,2.06.8l.52-.63a1.17,1.17,0,0,1,1.84,0l.52.63a1.18,1.18,0,0,0,2.06-.8V56.11a10.35,10.35,0,0,1,7.3-10A10,10,0,0,0,81,55.77a10,10,0,0,1,7.32-9.63l.26-.07.61-.13.47-.07.49-.06.18,0h.32l.35,0h.21l.5,0,.54.05.48.08.53.1.46.12.51.16.44.16.48.21.42.2.46.25.39.24.43.3.37.27.4.34c.11.1.23.2.33.31s.25.25.37.38.21.22.3.33.22.28.33.42.19.24.27.36.2.3.29.46.16.25.23.38.17.32.25.49l.19.39c.07.18.14.36.2.53s.11.27.15.41.11.38.16.58.07.26.1.39.07.45.1.67l.06.34c0,.35,0,.7,0,1.05v9.7a1.18,1.18,0,0,0,2.06.8l.52-.63a1.17,1.17,0,0,1,1.84,0l.52.63a1.18,1.18,0,0,0,2.06-.8V55.11a10.22,10.22,0,0,1,9.33-10.32,10,10,0,0,1,10.67,10V65.48a1.19,1.19,0,0,0,2.08.77l0,0a1.18,1.18,0,0,1,1.78,0l0,0a1.19,1.19,0,0,0,2.08-.77V56.11a10.35,10.35,0,0,1,7.3-10,10,10,0,0,0-7.3,9.62,10,10,0,0,1,7.32-9.63l.26-.07.61-.13.47-.07.49-.06.18,0h.32l.35,0h.21l.5,0,.54.05.48.08.53.1.46.12.5.16.44.16a4.25,4.25,0,0,1,.49.21l.42.2.46.25.39.24.43.3.37.27.4.34.33.31c.13.12.25.25.37.38l.3.33c.12.14.22.28.33.42l.27.36.29.45c.08.13.16.25.23.38s.17.33.25.5l.19.39c.07.17.14.35.2.53s.11.27.15.4.11.39.15.59.08.26.11.39.07.45.1.67,0,.23.05.34a8.94,8.94,0,0,1,.06,1v0a3,3,0,0,1,3-3h0a3,3,0,0,1,3,3v0A16,16,0,0,0,144,39.77Z"/><path d="M74,55.77a10.55,10.55,0,0,0-.07-1.13A10.55,10.55,0,0,1,74,55.77Z"/><path d="M73.28,52.07a5.22,5.22,0,0,0-.24-.54A5.22,5.22,0,0,1,73.28,52.07Z"/><path d="M68.86,47a4.53,4.53,0,0,0-.54-.27A4.53,4.53,0,0,1,68.86,47Z"/><path d="M69.75,47.6l-.44-.29Z"/><path d="M89.18,45.94l-.56.13Z"/><path d="M63.16,45.81c-.25,0-.49.06-.73.09Z"/><path d="M71,48.62l.34.36Z"/><path d="M154,55.76a9.07,9.07,0,0,0-.06-1A9.07,9.07,0,0,1,154,55.76Z"/><path d="M72.83,51.08c-.09-.17-.19-.33-.3-.5C72.64,50.75,72.74,50.91,72.83,51.08Z"/><path d="M54.22,53.7l0,.14Z"/><path d="M73.63,53.12q-.07-.3-.18-.6Q73.55,52.82,73.63,53.12Z"/><path d="M70.57,48.24l-.38-.31Z"/><path d="M64.32,45.78H64l-.42,0Z"/><path d="M73.88,54.27c0-.24-.08-.48-.13-.71C73.8,53.79,73.84,54,73.88,54.27Z"/><path d="M72.06,49.88c-.12-.17-.23-.33-.36-.49C71.83,49.55,71.94,49.71,72.06,49.88Z"/><path d="M66.61,46.13c-.24-.07-.49-.13-.74-.18C66.12,46,66.37,46.06,66.61,46.13Z"/><path d="M90.15,45.81l-.48.06Z"/><path d="M54.08,54.59a2,2,0,0,0,0,.24A2,2,0,0,1,54.08,54.59Z"/><path d="M67.92,46.57a8.87,8.87,0,0,0-1-.36A8.18,8.18,0,0,1,67.92,46.57Z"/><path d="M65.46,45.89a5.51,5.51,0,0,0-.71-.08A5.51,5.51,0,0,1,65.46,45.89Z"/><path d="M160,58.49l-1,107.28h0l1-107C160,58.69,160,58.59,160,58.49Z"/><path d="M54,68.24V55.79l-.1,12.37Z"/><path d="M154,166.93a2.67,2.67,0,0,0-.37,2.32l-.06-.13a6,6,0,0,1-.55-2.35v-1H53v0a7.64,7.64,0,0,1-.37,2.09,4.51,4.51,0,0,0-.13.53,2.35,2.35,0,0,0-.6-1.73,2.54,2.54,0,0,0-1.9-.91v6H156v-6A2.6,2.6,0,0,0,154,166.93Zm-103-.16h0Z"/><path d="M159,170.28a3.57,3.57,0,0,0,.11-3.52l-.07-.16v-.83h0l1-107.28a3.09,3.09,0,0,0-.12-.62,15.91,15.91,0,0,0,.14-2.08,3,3,0,0,0-3-3h0a3,3,0,0,0-3,3v0h0v9a9.71,9.71,0,0,1-.08,1.21l0,2.09,0,.24,0,0-.11-1.27L153,165.13v1.64a6,6,0,0,0,.55,2.35l.06.13a2.67,2.67,0,0,1,.37-2.32,2.6,2.6,0,0,1,2-1.16v6A3.38,3.38,0,0,0,159,170.28Z"/><path d="M154,55.74a3,3,0,0,1,3-3h0A3,3,0,0,0,154,55.74Z"/><path d="M53.9,68.16,54,55.79a3,3,0,0,0-3-3h0a3,3,0,0,0-3,2.95v.05A16,16,0,0,0,53.9,68.16Z"/><path d="M51.9,166.68a2.35,2.35,0,0,1,.6,1.73,4.51,4.51,0,0,1,.13-.53,7.64,7.64,0,0,0,.37-2.09v0H50.83c-.41-1.17-1.52-22-2.83-22a3,3,0,0,0-1,.18v21.74s0,.05,0,.08H45.18a3,3,0,0,0-.18,1,5,5,0,0,0,5,5v-6A2.54,2.54,0,0,1,51.9,166.68Zm-4.9-.91v0Z"/><path d="M69.31,47.31l-.08-.05-.33-.2,0,0C69,47.12,69.16,47.22,69.31,47.31Z"/><path d="M65.87,46h0c-.12,0-.25,0-.38-.06h0C65.6,45.91,65.74,45.92,65.87,46Z"/><path d="M73,51.53l0-.08c-.05-.11-.1-.22-.16-.33l0,0C72.91,51.23,73,51.38,73,51.53Z"/><path d="M73.75,53.56v0c0-.13-.06-.26-.1-.39v0Z"/><path d="M68.32,46.77l-.13-.07c-.09,0-.16-.09-.25-.12h0Z"/><path d="M71.7,49.39l0,0-.21-.22L71.32,49C71.45,49.11,71.58,49.25,71.7,49.39Z"/><path d="M70.19,47.93l-.06,0c-.11-.08-.21-.17-.32-.24l-.06,0A4.59,4.59,0,0,1,70.19,47.93Z"/><path d="M71,48.62l0,0-.29-.26-.08-.08Z"/><path d="M73.93,54.64h0c0-.12,0-.24-.05-.35v0C73.89,54.39,73.92,54.52,73.93,54.64Z"/><path d="M66.94,46.21h0l-.25-.07h-.07Z"/><path d="M72.53,50.58l-.13-.23-.09-.15-.25-.32A7.78,7.78,0,0,1,72.53,50.58Z"/><path d="M73.45,52.52v0l-.14-.38,0,0C73.34,52.22,73.4,52.37,73.45,52.52Z"/><path d="M64.75,45.81h0c-.14,0-.28,0-.43,0h0C64.47,45.79,64.61,45.79,64.75,45.81Z"/><path d="M73.28,52.07l0,0c-.09-.22-.19-.44-.29-.65l0,.08A5.22,5.22,0,0,1,73.28,52.07Z"/><path d="M71.32,49l.14.15c-.17-.19-.34-.38-.52-.55l0,0Z"/><path d="M73.63,53.12v0c-.06-.23-.13-.45-.2-.67v0Q73.55,52.82,73.63,53.12Z"/><path d="M67.92,46.57h0a9.41,9.41,0,0,0-1-.37h0A8.87,8.87,0,0,1,67.92,46.57Z"/><path d="M68.86,47l0,0c-.23-.13-.47-.25-.71-.36l.13.07A4.53,4.53,0,0,1,68.86,47Z"/><path d="M72.06,49.88l.25.32c-.2-.29-.42-.58-.64-.85l0,0C71.83,49.55,71.94,49.71,72.06,49.88Z"/><path d="M65.46,45.89h0a5.82,5.82,0,0,0-.73-.08h0A5.51,5.51,0,0,1,65.46,45.89Z"/><path d="M69.75,47.6l.06,0c-.19-.14-.38-.26-.58-.38l.08.05Z"/><path d="M66.61,46.13h.07c-.27-.07-.54-.14-.82-.19h0C66.12,46,66.37,46.06,66.61,46.13Z"/><path d="M72.83,51.08l0,0c-.14-.26-.29-.52-.45-.77l.13.23C72.64,50.75,72.74,50.91,72.83,51.08Z"/><path d="M70.57,48.24l.08.08c-.17-.16-.34-.3-.52-.44l.06,0Z"/><path d="M64.32,45.78h0Z"/><path d="M73.88,54.27v0c0-.25-.08-.5-.14-.75v0C73.8,53.79,73.84,54,73.88,54.27Z"/><path d="M74,55.77a10.55,10.55,0,0,0-.07-1.13h0A10.55,10.55,0,0,1,74,55.77Z"/><path d="M54.19,53.84h0c0,.24-.08.49-.11.73h0A6.46,6.46,0,0,1,54.19,53.84Z"/><path d="M54.05,54.83c0,.31,0,.62,0,.94,0-.32,0-.63,0-.94Z"/><path d="M63.58,45.79h0l-.42,0h0Z"/><path d="M62.43,45.9h0a10,10,0,0,0-8.19,7.77v0A10,10,0,0,1,62.43,45.9Z"/><path d="M54.08,54.59h0a2.42,2.42,0,0,0,0,.25h0A2,2,0,0,1,54.08,54.59Z"/><path d="M54.22,53.7v0l0,.17h0Z"/><path d="M63.16,45.81h0c-.25,0-.5.06-.75.1h0C62.67,45.87,62.91,45.83,63.16,45.81Z"/><path d="M64,45.77l-.42,0h0Z"/><path d="M95.62,46.91l-.05,0-.42-.2-.06,0Z"/><path d="M96.48,47.41l-.06,0L96,47.13l-.08,0Z"/><path d="M97.27,48l0-.05-.37-.27-.09-.07Z"/><path d="M92.74,45.93h0l-.48-.08h0Z"/><path d="M91.71,45.8h0l-.5,0h0Z"/><path d="M93.74,46.16h0L93.26,46h0Z"/><path d="M94.7,46.49l0,0-.44-.16h0Z"/><path d="M98,48.64l0,0c-.1-.11-.22-.21-.33-.31l-.11-.09C97.68,48.34,97.84,48.48,98,48.64Z"/><path d="M100.79,53.72h0c0-.13-.07-.26-.1-.39a.56.56,0,0,1,0-.12C100.7,53.37,100.75,53.54,100.79,53.72Z"/><path d="M100.54,52.76v0c0-.14-.1-.27-.15-.41l-.06-.15C100.4,52.37,100.47,52.56,100.54,52.76Z"/><path d="M101,54.73h0l-.06-.34s0-.05,0-.07C100.9,54.45,100.93,54.59,101,54.73Z"/><path d="M98.66,49.35l0-.05c-.09-.11-.2-.22-.3-.33l-.11-.12C98.36,49,98.52,49.18,98.66,49.35Z"/><path d="M99.25,50.13l0-.05c-.08-.12-.18-.24-.27-.36l-.11-.14C99,49.76,99.12,49.94,99.25,50.13Z"/><path d="M99.76,51l0,0c-.07-.13-.15-.26-.23-.38a.86.86,0,0,0-.1-.16C99.53,50.57,99.65,50.76,99.76,51Z"/><path d="M100.19,51.83v0l-.19-.39c0-.06,0-.11-.08-.16A6.19,6.19,0,0,1,100.19,51.83Z"/><path d="M91.21,45.78h0Z"/><path d="M93.24,46h0l-.53-.1h0Z"/><path d="M100.88,54.31s0,0,0,.07c0-.22-.06-.45-.1-.67h0C100.83,53.91,100.85,54.11,100.88,54.31Z"/><path d="M99.91,51.25s0,.1.08.16c-.08-.17-.16-.33-.25-.49l0,0Z"/><path d="M98.84,49.58l.11.14c-.11-.14-.21-.28-.33-.42l0,.05Z"/><path d="M100.65,53.2a.56.56,0,0,0,0,.12c0-.2-.1-.39-.16-.58v0C100.58,52.9,100.61,53.05,100.65,53.2Z"/><path d="M100.32,52.18l.06.15c-.06-.17-.13-.35-.2-.53v0C100.24,52,100.28,52.07,100.32,52.18Z"/><path d="M97.51,48.19l.11.09-.4-.34,0,.05Z"/><path d="M99.41,50.38a.86.86,0,0,1,.1.16c-.09-.16-.19-.31-.29-.46l0,.05C99.31,50.21,99.36,50.3,99.41,50.38Z"/><path d="M94.19,46.3h0l-.51-.16h0Z"/><path d="M92.25,45.85h0l-.54-.05h0Z"/><path d="M95.09,46.65l.06,0-.48-.21,0,0Z"/><path d="M96.76,47.6l.09.07-.43-.3.06,0Z"/><path d="M96,47.09l.08,0-.46-.25.05,0Z"/><path d="M98.21,48.85l.11.12c-.12-.13-.24-.26-.37-.38l0,0Z"/><path d="M101,55.77c0-.35,0-.7,0-1.05h0C101,55.07,101,55.42,101,55.77Z"/><path d="M88.58,46.07l-.26.07h0l.32-.08Z"/><path d="M90.65,45.79h0l-.5,0h0Z"/><path d="M89.67,45.87h0l-.47.07h0Z"/><path d="M81,55.77a10,10,0,0,1,7.3-9.62h0A10,10,0,0,0,81,55.77Z"/><path d="M89.18,45.94h0l-.61.13h0Z"/><path d="M90.15,45.81h0l-.49.06h0Z"/><path d="M91,45.77l-.35,0h0Z"/><polygon points="154 55.77 154 55.76 154 55.77 154 55.77"/><path d="M153.78,66.86v-.07A.19.19,0,0,0,153.78,66.86Z"/><polygon points="153.79 67.06 153.9 68.33 153.9 68.07 153.8 66.79 153.79 67.06"/><path d="M141.58,46.07l-.26.07h0l.32-.08Z"/><path d="M142.67,45.87h0l-.47.07h0Z"/><path d="M143.65,45.79h0l-.5,0h0Z"/><path d="M143.15,45.81h0l-.49.06h0Z"/><path d="M134,55.77a10,10,0,0,1,7.3-9.62h0A10,10,0,0,0,134,55.77Z"/><path d="M144,45.77l-.35,0h0Z"/><path d="M142.18,45.94h0l-.61.13h0Z"/><path d="M153.53,52.75v0c0-.13-.1-.26-.15-.4l-.06-.15Q153.44,52.47,153.53,52.75Z"/><path d="M147.71,46.49l-.05,0-.44-.16h0Z"/><path d="M151,48.64l-.05,0-.33-.31-.11-.09C150.68,48.34,150.84,48.48,151,48.64Z"/><path d="M151.66,49.35l0-.05-.3-.33-.12-.12C151.36,49,151.52,49.18,151.66,49.35Z"/><path d="M144.71,45.8h0l-.5,0h0Z"/><path d="M152.25,50.13l0-.05-.27-.36-.11-.14C152,49.76,152.12,49.94,152.25,50.13Z"/><path d="M150.27,48l-.05-.05-.37-.27-.1-.07C149.93,47.73,150.1,47.85,150.27,48Z"/><path d="M153.94,54.72h0c0-.11,0-.22-.05-.34s0-.05,0-.08C153.9,54.44,153.93,54.58,153.94,54.72Z"/><path d="M148.62,46.91l-.05,0-.42-.2-.06,0Z"/><path d="M149.48,47.41l-.06,0-.39-.24-.08,0Z"/><path d="M145.74,45.93h0l-.48-.08h0Z"/><path d="M153.79,53.72h0c0-.13-.07-.26-.11-.39l0-.13C153.7,53.37,153.75,53.54,153.79,53.72Z"/><path d="M153.19,51.83v0l-.19-.39a1.3,1.3,0,0,1-.08-.17C153,51.44,153.1,51.63,153.19,51.83Z"/><path d="M146.74,46.16h0l-.46-.12h0Z"/><path d="M152.76,51l0,0c-.07-.13-.15-.25-.23-.38l-.1-.15C152.53,50.57,152.65,50.76,152.76,51Z"/><path d="M153.94,54.72a9.07,9.07,0,0,1,.06,1,8.94,8.94,0,0,0-.06-1Z"/><path d="M145.24,45.85h0l-.54-.05h0Z"/><path d="M148.09,46.65l.06,0a4.25,4.25,0,0,0-.49-.21l.05,0Z"/><path d="M146.24,46h0l-.53-.1h0Z"/><path d="M144.21,45.78h0Z"/><path d="M147.19,46.3h0l-.5-.16h0Z"/><path d="M152.41,50.38l.1.15-.29-.45,0,.05A2.13,2.13,0,0,1,152.41,50.38Z"/><path d="M151.84,49.58l.11.14c-.11-.14-.21-.28-.33-.42l0,.05Z"/><path d="M149.75,47.6l.1.07-.43-.3.06,0Z"/><path d="M150.51,48.19l.11.09-.4-.34.05.05Z"/><path d="M149,47.09l.08,0-.46-.25.05,0Z"/><path d="M152.91,51.24a1.3,1.3,0,0,0,.08.17c-.08-.17-.16-.34-.25-.5l0,0Z"/><path d="M153.88,54.3s0,.06,0,.08c0-.22-.06-.45-.1-.67h0C153.83,53.91,153.85,54.11,153.88,54.3Z"/><path d="M153.65,53.19l0,.13c0-.2-.09-.39-.15-.59v0C153.58,52.9,153.61,53,153.65,53.19Z"/><path d="M151.2,48.85l.12.12c-.12-.13-.24-.26-.37-.38l.05,0Z"/><path d="M153.32,52.18l.06.15c-.06-.18-.13-.36-.2-.53v0C153.24,52,153.28,52.06,153.32,52.18Z"/><path d="M153.92,66a9.71,9.71,0,0,0,.08-1.21v-9h0Z"/><path d="M153.9,68.07l0-2.09q0,.4-.12.81Z"/><path d="M153.92,68.31l0-.24v.26Z"/><path d="M70,88.77c-6.17,0-11,6.15-11,14s4.83,14,11,14,11-6.15,11-14S76.17,88.77,70,88.77Zm0,22c-2.66,0-5-3.74-5-8s2.34-8,5-8,5,3.74,5,8S72.66,110.77,70,110.77Z"/><path d="M91,97.77c6.17,0,11-6.15,11-14s-4.83-14-11-14-11,6.15-11,14S84.83,97.77,91,97.77Zm0-22c2.66,0,5,3.74,5,8s-2.34,8-5,8-5-3.74-5-8S88.34,75.77,91,75.77Z"/><path d="M118,97.77c6.17,0,11-6.15,11-14s-4.83-14-11-14-11,6.15-11,14S111.83,97.77,118,97.77Zm0-22c2.66,0,5,3.74,5,8s-2.34,8-5,8-5-3.74-5-8S115.34,75.77,118,75.77Z"/><path d="M139,88.77c-6.17,0-11,6.15-11,14s4.83,14,11,14,11-6.15,11-14S145.17,88.77,139,88.77Zm0,22c-2.66,0-5-3.74-5-8s2.34-8,5-8,5,3.74,5,8S141.66,110.77,139,110.77Z"/><path d="M90.94,143.77l-1,0a3,3,0,0,1,.38-6,9,9,0,0,0,6.92-2.61,5.33,5.33,0,0,0,.4-.42,7,7,0,0,1,5.23-2.38h0a7,7,0,0,1,5.23,2.39,5,5,0,0,0,.39.41c2.41,2.42,7.07,4.07,12.24.77a3.89,3.89,0,0,0,1.19-1.2c3.78-5.91.49-10.24-1.09-11.82l-17.4-18.31a.77.77,0,0,0-.55-.2h0a.82.82,0,0,0-.61.25L84.63,122.47c-2.42,2.42-4.07,7.07-.77,12.24a4.08,4.08,0,0,0,.34.45,3,3,0,0,1-4.54,3.92,11,11,0,0,1-.86-1.14c-4.88-7.65-2.72-15.41,1.58-19.71l17.68-17.82a6.86,6.86,0,0,1,9.72,0l17.39,18.31c4.15,4.14,6.85,11.41,1.86,19.24a10,10,0,0,1-3,3c-7.65,4.87-15.41,2.72-19.71-1.58-.23-.23-.44-.46-.65-.7a1,1,0,0,0-.73-.35h0a1,1,0,0,0-.73.35c-.21.24-.43.47-.66.7A15,15,0,0,1,90.94,143.77Z"/></g></g></g></svg>