<svg xmlns="http://www.w3.org/2000/svg" viewBox="0 0 208 155"><defs><style>.cls-1{fill:#eff8f9;}.cls-2{fill:#ace0b2;}.cls-3{fill:#f06c57;}.cls-4{fill:#fed299;}</style></defs><g id="Calque_2" data-name="Calque 2"><g id="autre"><g id="Calque_24" data-name="Calque 24"><rect class="cls-1" x="3.09" y="2.92" width="201.39" height="149.09" rx="14.83"/><circle class="cls-2" cx="64.7" cy="77.57" r="14.87"/><circle class="cls-3" cx="103.87" cy="77.57" r="14.87"/><circle class="cls-4" cx="142.78" cy="77.57" r="14.87"/></g><g id="Calque_22" data-name="Calque 22"><path d="M16.87,149A10.87,10.87,0,0,1,6,138.13V16.87A10.87,10.87,0,0,1,16.87,6H157a3,3,0,0,0,3-3h0a3,3,0,0,0-3-3H16.87A16.87,16.87,0,0,0,0,16.87V138.13A16.87,16.87,0,0,0,16.87,155H56a3,3,0,0,0,3-3h0a3,3,0,0,0-3-3Z"/><path d="M191.13,0H174a3,3,0,0,0-3,3h0a3,3,0,0,0,3,3h17.13A10.87,10.87,0,0,1,202,16.87V138.13A10.87,10.87,0,0,1,191.13,149H73a3,3,0,0,0-3,3h0a3,3,0,0,0,3,3H191.13A16.87,16.87,0,0,0,208,138.13V16.87A16.87,16.87,0,0,0,191.13,0Z"/></g></g></g></svg>