<svg xmlns="http://www.w3.org/2000/svg" viewBox="0 0 208 201"><defs><style>.cls-1{fill:#fed299;}.cls-2{fill:#d7a360;}.cls-3{fill:#cbe4e6;}.cls-4{fill:#9bc4c8;}.cls-5{fill:#eff8f9;}.cls-6{fill:#f06c57;}.cls-7{fill:#ace0b2;}.cls-8{fill:none;}.cls-9{fill:#020100;}</style></defs><g id="Calque_2" data-name="Calque 2"><g id="bricolage"><g id="Calque_16" data-name="Calque 16"><polygon class="cls-1" points="2.65 121 3.44 63.74 14.78 55 193.41 55.5 204.56 63.74 204.56 124.5 2.65 123.35 2.65 121"/><polygon class="cls-2" points="204.56 132 204.56 167.48 204 188 193 198 14 198 6 194 2.65 185.61 3 125 204.56 124.5 204.56 132"/><polygon class="cls-3" points="21 43.68 46 43.68 46 123.35 21 124 21 43.68"/><polygon class="cls-4" points="28 24 33 4 40 23 28 24"/><polyline class="cls-5" points="67 125 67 44 61.15 31.48 56.5 24 59.2 9.76 64.02 4 71.52 5.54 71.52 17.22 74 26.21 85.99 25.3 88.55 19 87.56 6.49 95.78 4 101.85 17 101.85 27 94.41 39 91.27 46.91 92.01 124.5 67 124.5"/><polygon class="cls-5" points="124 4 117 24 121.14 33.44 121 86.5 137.85 88 136.86 31.48 140 21.84 134 4 124 4"/><polygon class="cls-5" points="163.39 47.84 163.39 4 185 22.66 185 51.13 163.39 47.84"/><polygon class="cls-6" points="162 49.34 187 49.91 187.22 124 161 124.25 162 49.34"/><polygon class="cls-7" points="115.22 88 142 88 147.81 95 142 103.3 142 123.35 116 124.5 116 102 109.99 94.32 115.22 88"/><polygon class="cls-5" points="25.93 25.57 21 43.68 46 43.68 41 24 25.93 25.57"/></g><g id="Calque_8" data-name="Calque 8"><polygon class="cls-8" points="134 55 134 52 134 36 124 36 124 52 124 55 124 85 134 85 134 55"/><path class="cls-8" d="M140,58V85a10,10,0,0,1,9.92,11.23l-.06.35a6.09,6.09,0,0,1-.18.87c0,.12-.05.23-.08.34a10.41,10.41,0,0,1-.39,1.11l0,0a9.18,9.18,0,0,1-.5,1l-.18.3c-.15.25-.31.48-.48.71l-.2.27a10.49,10.49,0,0,1-.77.86l-.08.08a8.57,8.57,0,0,1-.79.68l-.28.22c-.23.17-.47.32-.71.47l-.19.13V121h14V58Z"/><path class="cls-8" d="M89,52V44.65a2.85,2.85,0,0,1,0-.29,3.11,3.11,0,0,1,.06-1.09,32.28,32.28,0,0,1,6-11.89l3.41-4a5.48,5.48,0,0,0,.95-3.83,61.3,61.3,0,0,0-2.07-10.68l-.76-2.61c-1.41-3.42-1.92-3.8-3.4-3.76a11.13,11.13,0,0,0-2.33.86,3.26,3.26,0,0,0-.62,2.49c0,.1,0,.2,0,.3l.36,5.57a16.34,16.34,0,0,1-.81,6.21l-1,3c0,.06-.06.12-.08.19s-.05.13-.08.19a.6.6,0,0,1-.06.11l-.07.12C87,28.24,82.46,30,80,30c-1.11,0-6.54-.17-8.48-3.32l-.1-.17-.1-.17a.69.69,0,0,1,0-.13c0-.05,0-.09-.07-.13l-1.46-3.8a16.22,16.22,0,0,1-1-6.86L69,10.14c0-.1,0-.2,0-.3a3.22,3.22,0,0,0-.62-2.49,10.82,10.82,0,0,0-2.34-.86c-1.42,0-2,.32-3.39,3.76L62,12.86A60.84,60.84,0,0,0,59.9,23.47a5.49,5.49,0,0,0,1,3.9l3.4,4C67.06,34.7,69,39.7,69.91,43.27A3.11,3.11,0,0,1,70,44.36a2.85,2.85,0,0,1,0,.29V121H89V52Zm-6.5,58.5a3,3,0,0,1-6,0v-52a3,3,0,0,1,6,0Z"/><polygon class="cls-8" points="167 47 182 47 182 39.38 170.75 29.74 167 26.52 167 47"/><polygon class="cls-8" points="131.8 7 126.2 7 121.14 23.02 123.23 30 134.77 30 136.86 23.02 131.8 7"/><rect class="cls-8" x="120" y="105" width="19" height="16"/><path class="cls-8" d="M144,95a4,4,0,0,0-4-4H118a4,4,0,0,0,0,8h22A4,4,0,0,0,144,95Z"/><polygon class="cls-8" points="28.65 27 24.51 41 42.49 41 38.35 27 28.65 27"/><path class="cls-8" d="M113.28,103.81l-.16-.09-.59-.36-.21-.14c-.2-.14-.4-.29-.58-.44l-.12-.09c-.22-.18-.44-.38-.64-.58l-.14-.15c-.16-.16-.31-.33-.46-.5s-.11-.13-.16-.19-.31-.4-.46-.61l-.06-.09c-.16-.24-.31-.49-.45-.74,0-.07-.07-.14-.11-.2s-.2-.4-.29-.61-.07-.15-.1-.23c-.1-.25-.2-.5-.28-.76a.25.25,0,0,1,0-.07,8.33,8.33,0,0,1-.22-.86,1.84,1.84,0,0,1,0-.25c0-.22-.08-.44-.1-.67a2.3,2.3,0,0,1,0-.26c0-.3,0-.61,0-.92a10,10,0,0,1,10-10V58H95v63h19V104.17Z"/><polygon class="cls-8" points="165 53 165 55 165 121 184 121 184 55 184 53 165 53"/><path class="cls-8" d="M142,174H66a3,3,0,0,1,0-6h76a3,3,0,0,1,0,6Zm0-15H66a3,3,0,0,1,0-6h76a3,3,0,0,1,0,6Z"/><polygon class="cls-8" points="33.5 10.63 30.43 21 36.57 21 33.5 10.63"/><path class="cls-8" d="M202,68.87A10.89,10.89,0,0,0,191.13,58H190v63h12Z"/><polygon class="cls-8" points="167 9.76 167 18.62 178.25 28.26 182 31.48 182 23.33 167 9.76"/><rect class="cls-8" x="49" y="58" width="15" height="63"/><path class="cls-9" d="M71.42,26.51l.1.17Z"/><path class="cls-9" d="M67,41.65a3,3,0,0,1,3,2.71,3.11,3.11,0,0,0-.06-1.09C69,39.7,67.06,34.7,64.25,31.38l-3.4-4a5.49,5.49,0,0,1-1-3.9A60.84,60.84,0,0,1,62,12.86l.76-2.61c1.42-3.44,2-3.81,3.39-3.76a10.82,10.82,0,0,1,2.34.86,3.22,3.22,0,0,1,.62,2.49c0,.1,0,.2,0,.3l-.34,5.28a16.22,16.22,0,0,0,1,6.86l1.46,3.8s0,.08.07.13a3,3,0,0,1,5.23-2.87l.09,0-1.25-3.26a10.21,10.21,0,0,1-.66-4.31L75,10.66A9.18,9.18,0,0,0,73,3.4C71.17,1.25,66.66.5,66.58.5c-6.26-.17-8.13,4.34-9.47,7.62a1.63,1.63,0,0,0-.11.31l-.8,2.77a66.48,66.48,0,0,0-2.26,11.59A11.5,11.5,0,0,0,56.05,31l.14.18,3.48,4.11A25.68,25.68,0,0,1,64,44.47,3,3,0,0,1,67,41.65Z"/><path class="cls-9" d="M87.34,21.32a3,3,0,0,1,1.42,3.83c0-.07.06-.13.08-.19l1-3a16.34,16.34,0,0,0,.81-6.21l-.36-5.57c0-.1,0-.2,0-.3a3.26,3.26,0,0,1,.62-2.49,11.13,11.13,0,0,1,2.33-.86c1.48,0,2,.34,3.4,3.76l.76,2.61a61.3,61.3,0,0,1,2.07,10.68,5.48,5.48,0,0,1-.95,3.83l-3.41,4a32.28,32.28,0,0,0-6,11.89A3.11,3.11,0,0,0,89,44.36a3,3,0,0,1,6,.12,26.42,26.42,0,0,1,4.7-9.21l3.48-4.11.14-.18a11.46,11.46,0,0,0,2.12-8.12,66.94,66.94,0,0,0-2.27-11.66l-.8-2.77a2.81,2.81,0,0,0-.1-.31C100.9,4.84,99,.31,92.74.5c0,0-4.56.75-6.35,2.9a9.15,9.15,0,0,0-2,7.26l.35,5.44A10.19,10.19,0,0,1,84.18,20L83.3,22.6l.08-.06A3,3,0,0,1,87.34,21.32Z"/><path class="cls-9" d="M88.55,25.57l.07-.12Z"/><path class="cls-9" d="M75.08,27.8a3,3,0,0,1-3.56-1.12C73.46,29.83,78.89,30,80,30c2.46,0,7-1.76,8.55-4.43A3,3,0,0,1,83.16,23l.14-.44A7.25,7.25,0,0,1,80,24a9.75,9.75,0,0,1-3.41-.62l.21.54A3,3,0,0,1,75.08,27.8Z"/><path class="cls-9" d="M71.42,26.51a2.1,2.1,0,0,1-.15-.3.69.69,0,0,0,0,.13Z"/><path class="cls-9" d="M88.76,25.15l-.14.3a.6.6,0,0,0,.06-.11C88.71,25.28,88.73,25.21,88.76,25.15Z"/><path class="cls-9" d="M72.66,22.32a3,3,0,0,0-1.39,3.89,2.1,2.1,0,0,0,.15.3l.1.17a3,3,0,0,0,5.28-2.76l-.21-.54-.09,0A3,3,0,0,0,72.66,22.32Zm4,1.34Z"/><path class="cls-9" d="M85,26.84a3,3,0,0,0,3.51-1.27l.07-.12.14-.3a3,3,0,0,0-5.38-2.61l-.08.06-.14.44A3,3,0,0,0,85,26.84Zm-1.72-4.18Z"/><path class="cls-9" d="M113.12,103.72l-.59-.36Z"/><path class="cls-9" d="M118,105h-.23a10,10,0,0,1-4.49-1.18l.72.36V121h6V105Z"/><path class="cls-9" d="M112.32,103.22c-.2-.14-.4-.29-.58-.44C111.92,102.93,112.12,103.08,112.32,103.22Z"/><path class="cls-9" d="M108.05,95.92c0-.3,0-.61,0-.92C108,95.31,108,95.62,108.05,95.92Z"/><path class="cls-9" d="M110.22,101.27c-.16-.2-.31-.4-.46-.61C109.91,100.87,110.06,101.07,110.22,101.27Z"/><path class="cls-9" d="M109.14,99.63c-.1-.2-.2-.4-.29-.61C108.94,99.23,109,99.43,109.14,99.63Z"/><path class="cls-9" d="M110.84,102c-.16-.16-.31-.33-.46-.5C110.53,101.63,110.68,101.8,110.84,102Z"/><path class="cls-9" d="M108.45,98a8.33,8.33,0,0,1-.22-.86A8.33,8.33,0,0,0,108.45,98Z"/><path class="cls-9" d="M108.18,96.85c0-.22-.08-.44-.1-.67C108.1,96.41,108.14,96.63,108.18,96.85Z"/><path class="cls-9" d="M111.62,102.69c-.22-.18-.44-.38-.64-.58C111.18,102.31,111.4,102.51,111.62,102.69Z"/><path class="cls-9" d="M108.75,98.79c-.1-.25-.2-.5-.28-.76C108.55,98.29,108.65,98.54,108.75,98.79Z"/><path class="cls-9" d="M109.7,100.57c-.16-.24-.31-.49-.45-.74C109.39,100.08,109.54,100.33,109.7,100.57Z"/><path class="cls-9" d="M92,58a3,3,0,0,1-3-3v66h6V58h23V85h6V55a3,3,0,0,1-6,0V52H95v3A3,3,0,0,1,92,58Z"/><path class="cls-9" d="M137,58a3,3,0,0,1-3-3V85h6V58h19v63h6V55a3,3,0,0,1-6,0V52H140v3A3,3,0,0,1,137,58Z"/><path class="cls-9" d="M149.68,97.45c0,.11-.05.23-.08.34C149.63,97.68,149.65,97.57,149.68,97.45Z"/><path class="cls-9" d="M149.92,96.23l-.06.35Z"/><path class="cls-9" d="M148.68,99.94l-.18.3Z"/><path class="cls-9" d="M149.21,98.9l0,0Z"/><path class="cls-9" d="M145,103.66l.19-.13-.19.12Z"/><path class="cls-9" d="M146.18,102.84l-.28.22Z"/><path class="cls-9" d="M148,101l-.2.27Z"/><path class="cls-9" d="M147.05,102.08l-.08.08Z"/><path class="cls-9" d="M202,184.13A10.87,10.87,0,0,1,191.13,195H16.87A10.87,10.87,0,0,1,6,184.13V127H202v21a3,3,0,0,0,3,3h0a3,3,0,0,0,3-3V68.87A16.87,16.87,0,0,0,191.13,52H190v2.83A3.12,3.12,0,0,1,187.16,58,3,3,0,0,1,184,55v66H165v2.35h-6V121H145v2.35h-6V121H120v2.35h-6V121H95v2.35H89V121H70v2.35H64V121H49v2.35H43V121H24V88a3,3,0,0,0-3-3h0a3,3,0,0,0-3,3v33H6V68.87A10.87,10.87,0,0,1,16.87,58H18V72a3,3,0,0,0,3,3h0a3,3,0,0,0,3-3V55a3,3,0,0,1-3.59,2.94,3.06,3.06,0,0,1-2.41-3V52H16.87A16.87,16.87,0,0,0,0,68.87V184.13A16.87,16.87,0,0,0,16.87,201H191.13A16.87,16.87,0,0,0,208,184.13V164a3,3,0,0,0-3-3h0a3,3,0,0,0-3,3ZM190,58h1.13A10.89,10.89,0,0,1,202,68.87V121H190Z"/><path class="cls-9" d="M142,153H66a3,3,0,0,0,0,6h76a3,3,0,0,0,0-6Z"/><path class="cls-9" d="M142,168H66a3,3,0,0,0,0,6h76a3,3,0,0,0,0-6Z"/><rect class="cls-9" x="89" y="121" width="6" height="2.35"/><rect class="cls-9" x="114" y="121" width="6" height="2.35"/><rect class="cls-9" x="159" y="121" width="6" height="2.35"/><path class="cls-9" d="M46,58a3,3,0,0,1-3-3v66h6V58H64v63h6V55a3,3,0,0,1-6,0V52H49v3A3,3,0,0,1,46,58Z"/><rect class="cls-9" x="64" y="121" width="6" height="2.35"/><rect class="cls-9" x="43" y="121" width="6" height="2.35"/><path class="cls-9" d="M44.77,47H43v5h6V44.65a3.45,3.45,0,0,0-.15-1,4.59,4.59,0,0,1-.76,1.63A4.13,4.13,0,0,1,44.77,47Z"/><path class="cls-9" d="M24,55V47H22.23a4.13,4.13,0,0,1-3.32-1.69,4.59,4.59,0,0,1-.76-1.63,3.45,3.45,0,0,0-.15,1V52h3A3,3,0,0,1,24,55Z"/><path class="cls-9" d="M21,58a3,3,0,0,0,0-6H18v3A3,3,0,0,0,21,58Z"/><path class="cls-9" d="M43,55a3,3,0,0,0,6,0V52H43Z"/><path class="cls-9" d="M70,44.65a2.85,2.85,0,0,0,0-.29,3,3,0,0,1-2.24,2.55A3.1,3.1,0,0,1,67,47a3,3,0,0,1-2.91-2.27L64,44.47a1.1,1.1,0,0,0,0,.18V52h6Z"/><path class="cls-9" d="M67,47a3.1,3.1,0,0,0,.73-.09A3,3,0,0,0,70,44.36a3,3,0,0,0-6,.11l.07.26A3,3,0,0,0,67,47Z"/><path class="cls-9" d="M67,58a3,3,0,0,0,3-3V52H64v3A3,3,0,0,0,67,58Z"/><path class="cls-9" d="M92,47a3.1,3.1,0,0,1-.73-.09A3,3,0,0,1,89,44.36a2.85,2.85,0,0,0,0,.29V52h6V44.65a1,1,0,0,0,0-.17l-.07.25A3,3,0,0,1,92,47Z"/><path class="cls-9" d="M92,41.65a3,3,0,0,0-3,2.71,3,3,0,0,0,2.24,2.55A3.1,3.1,0,0,0,92,47a3,3,0,0,0,2.91-2.27l.07-.25A3,3,0,0,0,92,41.65Z"/><path class="cls-9" d="M89,55a3,3,0,0,0,6,0V52H89Z"/><path class="cls-9" d="M79.5,55.5a3,3,0,0,0-3,3v52a3,3,0,0,0,6,0v-52A3,3,0,0,0,79.5,55.5Z"/><path class="cls-9" d="M161,50V47.41a3.66,3.66,0,0,0-2,3.24V52h2.78A3,3,0,0,1,161,50Z"/><path class="cls-9" d="M162,58a3,3,0,0,0,3-3V53h-1a3,3,0,0,1-2.22-1H159v3A3,3,0,0,0,162,58Z"/><path class="cls-9" d="M187.22,52H190V50.65a3.66,3.66,0,0,0-2-3.24V50A3,3,0,0,1,187.22,52Z"/><path class="cls-9" d="M184,53v2a3,3,0,0,1,.78-2Z"/><path class="cls-9" d="M185,53h-.22A3,3,0,1,0,190,55V52h-2.78A3,3,0,0,1,185,53Z"/><path class="cls-9" d="M117.65,105h0Z"/><path class="cls-9" d="M145,103.65a10,10,0,0,1-5,1.35h-1v16h6V103.66Z"/><rect class="cls-9" x="139" y="121" width="6" height="2.35"/><path class="cls-9" d="M21.65,41h2.86l4.14-14h9.7l4.14,14h2.86a3.65,3.65,0,0,1,3.5,2.68,4.78,4.78,0,0,0,0-2.49L37.54,3.13a4.17,4.17,0,0,0-8.08,0L18.19,41.19a4.78,4.78,0,0,0,0,2.49A3.65,3.65,0,0,1,21.65,41ZM33.5,10.63,36.57,21H30.43Z"/><path class="cls-9" d="M22.23,47H44.77a4.13,4.13,0,0,0,3.32-1.69,4.59,4.59,0,0,0,.76-1.63A3.65,3.65,0,0,0,45.35,41H21.65a3.65,3.65,0,0,0-3.5,2.68,4.59,4.59,0,0,0,.76,1.63A4.13,4.13,0,0,0,22.23,47Zm20.83-4.11h0Z"/><path class="cls-9" d="M111,102.11l-.14-.15Z"/><path class="cls-9" d="M111.74,102.78l-.12-.09Z"/><path class="cls-9" d="M110.38,101.46c-.06-.06-.11-.13-.16-.19S110.32,101.4,110.38,101.46Z"/><path class="cls-9" d="M149.6,97.79a10.41,10.41,0,0,1-.39,1.11A10.41,10.41,0,0,0,149.6,97.79Z"/><path class="cls-9" d="M112.53,103.36l-.21-.14Z"/><path class="cls-9" d="M149.18,99a9.18,9.18,0,0,1-.5,1A9.18,9.18,0,0,0,149.18,99Z"/><path class="cls-9" d="M149.86,96.58a6.09,6.09,0,0,1-.18.87A6.09,6.09,0,0,0,149.86,96.58Z"/><path class="cls-9" d="M150,95a10,10,0,0,1-.08,1.23A10,10,0,0,0,150,95Z"/><path class="cls-9" d="M148.5,100.24c-.15.25-.31.48-.48.71C148.19,100.72,148.35,100.49,148.5,100.24Z"/><path class="cls-9" d="M113.28,103.81l-.16-.09Z"/><path class="cls-9" d="M147.82,101.22a10.49,10.49,0,0,1-.77.86A10.49,10.49,0,0,0,147.82,101.22Z"/><path class="cls-9" d="M147,102.16a8.57,8.57,0,0,1-.79.68A8.57,8.57,0,0,0,147,102.16Z"/><path class="cls-9" d="M145.9,103.06a7.92,7.92,0,0,1-.71.47C145.43,103.38,145.67,103.23,145.9,103.06Z"/><path class="cls-9" d="M108.23,97.1a1.84,1.84,0,0,1,0-.25A1.84,1.84,0,0,0,108.23,97.1Z"/><path class="cls-9" d="M118.24,104.91l.25-.07.17-.08a.94.94,0,0,0,.22-.12l.16-.1.19-.16.13-.13a1.46,1.46,0,0,0,.16-.19l.11-.15.12-.22c0-.06,0-.11.08-.16s.06-.19.08-.28a.83.83,0,0,0,0-.15,2.14,2.14,0,0,0,0-.45h-2V105h.07Z"/><path class="cls-9" d="M108.08,96.18a2.3,2.3,0,0,1,0-.26A2.3,2.3,0,0,0,108.08,96.18Z"/><path class="cls-9" d="M109.76,100.66l-.06-.09Z"/><rect class="cls-9" x="124" y="85" width="10" height="6"/><path class="cls-9" d="M108.85,99c0-.08-.07-.15-.1-.23C108.78,98.87,108.82,98.94,108.85,99Z"/><path class="cls-9" d="M109.25,99.83c0-.07-.07-.14-.11-.2S109.21,99.76,109.25,99.83Z"/><path class="cls-9" d="M108.47,98a.25.25,0,0,1,0-.07A.25.25,0,0,0,108.47,98Z"/><path class="cls-9" d="M119.83,103.53s0,.1-.08.16S119.8,103.58,119.83,103.53Z"/><path class="cls-9" d="M118.66,104.76l-.17.08Z"/><path class="cls-9" d="M120,103.1a.83.83,0,0,1,0,.15A.83.83,0,0,0,120,103.1Z"/><path class="cls-9" d="M119.36,104.25l-.13.13Z"/><path class="cls-9" d="M119.63,103.91l-.11.15Z"/><path class="cls-9" d="M108,95c0,.31,0,.62,0,.92a2.3,2.3,0,0,0,0,.26c0,.23.06.45.1.67a1.84,1.84,0,0,0,0,.25,8.33,8.33,0,0,0,.22.86.25.25,0,0,0,0,.07c.08.26.18.51.28.76,0,.08.07.15.1.23s.19.41.29.61.07.13.11.2c.14.25.29.5.45.74l.06.09c.15.21.3.41.46.61s.1.13.16.19.3.34.46.5l.14.15c.2.2.42.4.64.58l.12.09c.18.15.38.3.58.44l.21.14.59.36.16.09a10,10,0,0,0,4.49,1.18l.23,0v-2.31h-4A3.66,3.66,0,0,1,117.65,99H118a4,4,0,0,1,0-8h6V85h-6A10,10,0,0,0,108,95Z"/><path class="cls-9" d="M119,104.54l-.16.1Z"/><path class="cls-9" d="M118.24,104.91l-.17,0Z"/><path class="cls-9" d="M140,91a4,4,0,0,1,0,8h1.35a3.66,3.66,0,0,1,3.65,3.65v1l.19-.12a7.92,7.92,0,0,0,.71-.47l.28-.22a8.57,8.57,0,0,0,.79-.68l.08-.08a10.49,10.49,0,0,0,.77-.86l.2-.27c.17-.23.33-.46.48-.71l.18-.3a9.18,9.18,0,0,0,.5-1l0,0a10.41,10.41,0,0,0,.39-1.11c0-.11.05-.23.08-.34a6.09,6.09,0,0,0,.18-.87l.06-.35A10,10,0,0,0,140,85h-6v6Z"/><path class="cls-9" d="M118.49,104.84l-.25.07Z"/><path class="cls-9" d="M118.07,105h0Z"/><path class="cls-9" d="M118.88,104.64a.94.94,0,0,1-.22.12A.94.94,0,0,0,118.88,104.64Z"/><path class="cls-9" d="M140,104.57V99H118v3.65h2V105h19v-2.35A2.34,2.34,0,0,0,140,104.57Z"/><path class="cls-9" d="M119.91,103.25c0,.09,0,.19-.08.28C119.86,103.44,119.89,103.34,119.91,103.25Z"/><path class="cls-9" d="M120,102.65a2.14,2.14,0,0,1,0,.45A2.14,2.14,0,0,0,120,102.65Z"/><path class="cls-9" d="M119.75,103.69l-.12.22Z"/><path class="cls-9" d="M119.52,104.06a1.46,1.46,0,0,1-.16.19A1.46,1.46,0,0,0,119.52,104.06Z"/><path class="cls-9" d="M119.23,104.38l-.19.16Z"/><path class="cls-9" d="M120,103.1a.83.83,0,0,1,0,.15c0,.09,0,.19-.08.28s0,.1-.08.16l-.12.22-.11.15a1.46,1.46,0,0,1-.16.19l-.13.13-.19.16-.16.1a.94.94,0,0,1-.22.12l-.17.08-.25.07-.17,0H118l-.23,0H120v-2.35A2.14,2.14,0,0,1,120,103.1Z"/><path class="cls-9" d="M117.65,99a3.66,3.66,0,0,0-3.65,3.65h4V99Z"/><path class="cls-9" d="M141.35,99H140v5.57a2.34,2.34,0,0,1-1-1.92V105h1a10,10,0,0,0,5-1.35v-1A3.66,3.66,0,0,0,141.35,99Z"/><path class="cls-9" d="M124,36h-3a3,3,0,0,1-2.87-2.14l-.13-.42V52h6Z"/><path class="cls-9" d="M137,36h-3V52h6V33.44l-.13.42A3,3,0,0,1,137,36Z"/><path class="cls-9" d="M121,58a3,3,0,0,0,3-3V52h-6v3A3,3,0,0,0,121,58Z"/><path class="cls-9" d="M134,55a3,3,0,0,0,6,0V52h-6Z"/><path class="cls-9" d="M121,30h2.23l-2.09-7L126.2,7h5.6l5.06,16-2.09,7H137a3,3,0,0,1,3,3v.44l2.87-9.58a2.94,2.94,0,0,0,0-1.76l-6-19A3,3,0,0,0,134,1H124a3,3,0,0,0-2.86,2.1l-6,19a2.94,2.94,0,0,0,0,1.76L118,33.44V33A3,3,0,0,1,121,30Z"/><path class="cls-9" d="M121,36h16a3,3,0,0,0,2.87-2.14l.13-.42V33a3,3,0,0,0-3-3H121a3,3,0,0,0-3,3v.44l.13.42A3,3,0,0,0,121,36Z"/><path class="cls-9" d="M164,47a3,3,0,0,1,1,5.83V53h19v-.17A3,3,0,0,1,185,47h1.35a3.66,3.66,0,0,1,1.65.41V38a3,3,0,0,1-1.75,2.73A3.06,3.06,0,0,1,185,41a3,3,0,0,1-1.95-.72l-12.3-10.54L182,39.38V47H167V26.52l-4.95-4.24A3,3,0,0,1,161,20V47.41a3.66,3.66,0,0,1,1.65-.41Z"/><polygon class="cls-9" points="182 31.48 182 31.48 178.25 28.26 182 31.48"/><path class="cls-9" d="M161.78,52H165v.83A3,3,0,0,0,164,47h-1.35a3.66,3.66,0,0,0-1.65.41V50A3,3,0,0,0,161.78,52Z"/><path class="cls-9" d="M165,52h-3.22A3,3,0,0,0,164,53h1V52Z"/><path class="cls-9" d="M185,47a3,3,0,0,0-1,5.83V53h.78A3,3,0,0,1,187,52h.22a3,3,0,0,0,.78-2V47.41a3.66,3.66,0,0,0-1.65-.41Z"/><path class="cls-9" d="M187.22,52H187a3,3,0,0,0-2.22,1H185A3,3,0,0,0,187.22,52Z"/><path class="cls-9" d="M162.75,17.27a3,3,0,0,1,3.2.45l12.3,10.54L167,18.62V9.76l15,13.57v8.15L187,35.72A3,3,0,0,1,188,38V22a3,3,0,0,0-1-2.22l-21-19A3,3,0,0,0,161,3V20A3,3,0,0,1,162.75,17.27Z"/><polygon class="cls-9" points="167 26.52 170.75 29.74 167 26.52 167 26.52"/><path class="cls-9" d="M167,26.52h0l3.75,3.22,12.3,10.54A3,3,0,0,0,185,41a3.06,3.06,0,0,0,1.25-.27,3,3,0,0,0,.7-5L182,31.48h0l-3.75-3.22L166,17.72a3,3,0,0,0-3.9,4.56Z"/></g></g></g></svg>