<svg xmlns="http://www.w3.org/2000/svg" viewBox="0 0 218 164.55"><defs><style>.cls-1{fill:#d4f1d8;}.cls-2{fill:#ace0b2;}.cls-3{fill:#cbe4e6;}.cls-4{fill:#eff8f9;}.cls-5{fill:none;}</style></defs><g id="Calque_2" data-name="Calque 2"><g id="informatique"><g id="Calque_17" data-name="Calque 17"><polygon class="cls-1" points="20.72 7.72 16.77 19.73 16.77 132.1 202.28 134.15 202.08 15.29 195.92 5.66 186.56 3.14 28.11 3.5 20.72 7.72"/><polygon class="cls-2" points="4.53 134.15 214.86 135.54 214.86 151.79 206.88 161.4 195.13 161.4 13.31 161.4 4.53 155.62 2.1 141.57 4.53 134.15"/><rect class="cls-3" x="30.39" y="16.77" width="157.21" height="26.2"/><rect class="cls-4" x="30.39" y="42.97" width="158.26" height="78.61"/><polygon class="cls-4" points="76.51 135 80.74 144.65 87.57 148.14 133.91 148.14 141.4 141.57 142.54 135 76.51 135"/></g><g id="Calque_9" data-name="Calque 9"><path class="cls-5" d="M89.66,145h39.73a10,10,0,0,0,9.5-6.86H80.16A10,10,0,0,0,89.66,145Z"/><path class="cls-5" d="M121.58,52.4h28.29a3.15,3.15,0,1,1,0,6.29H121.58a3.15,3.15,0,1,1,0-6.29Zm0,13.63H137.3a3.15,3.15,0,0,1,0,6.29H121.58a3.15,3.15,0,1,1,0-6.29Zm0,13.62h28.29a3.15,3.15,0,1,1,0,6.29H121.58a3.15,3.15,0,1,1,0-6.29Zm0,12.58h28.29a3.15,3.15,0,1,1,0,6.29H121.58a3.15,3.15,0,1,1,0-6.29ZM59.34,93.68a3.14,3.14,0,1,1-4.44,4.44L40.75,84a3.88,3.88,0,0,1,0-5L54.9,64.85a3.14,3.14,0,1,1,4.44,4.45L47.16,81.49ZM79.55,68.91l-7.33,28.3a3.15,3.15,0,1,1-6.09-1.58l7.34-28.29a3.14,3.14,0,1,1,6.08,1.57ZM104.41,85,90.26,99.17a3.14,3.14,0,0,1-4.44-4.45L98,82.54,85.82,70.35a3.14,3.14,0,1,1,4.44-4.45l14.15,14.15a3.88,3.88,0,0,1,0,5ZM137.3,111.1H121.58a3.15,3.15,0,1,1,0-6.29H137.3a3.15,3.15,0,0,1,0,6.29Zm40.87,0h-28.3a3.15,3.15,0,0,1,0-6.29h28.3a3.15,3.15,0,1,1,0,6.29Zm0-12.58H162.45a3.15,3.15,0,0,1,0-6.29h15.72a3.15,3.15,0,1,1,0,6.29Zm0-12.58H162.45a3.15,3.15,0,0,1,0-6.29h15.72a3.15,3.15,0,1,1,0,6.29Zm0-13.62h-28.3a3.15,3.15,0,0,1,0-6.29h28.3a3.15,3.15,0,1,1,0,6.29Zm0-13.63H162.45a3.15,3.15,0,0,1,0-6.29h15.72a3.15,3.15,0,1,1,0,6.29Z"/><path class="cls-5" d="M185.51,19.91h-152V39.83h152ZM57.64,32.49H41.92a3.15,3.15,0,0,1,0-6.29H57.64a3.15,3.15,0,1,1,0,6.29Zm27.25,0H69.17a3.15,3.15,0,0,1,0-6.29H84.89a3.15,3.15,0,1,1,0,6.29Zm27.25,0H96.42a3.15,3.15,0,0,1,0-6.29h15.72a3.15,3.15,0,1,1,0,6.29Z"/><path d="M213.47,131h-8.05v6.29h6.29v9.57a11.39,11.39,0,0,1-11.39,11.39H128.91a3.15,3.15,0,0,0-3.14,3.14h0a3.15,3.15,0,0,0,3.14,3.15h71.41A17.69,17.69,0,0,0,218,146.87V135.54A4.53,4.53,0,0,0,213.47,131Z"/><path d="M17.68,158.26A11.39,11.39,0,0,1,6.29,146.87V137.3h7.33V131H4.53A4.53,4.53,0,0,0,0,135.54v11.33a17.69,17.69,0,0,0,17.68,17.68h94.46a3.15,3.15,0,0,0,3.15-3.15h0a3.15,3.15,0,0,0-3.15-3.14Z"/><path d="M89.66,151.29h39.73a16.3,16.3,0,0,0,16.11-14H73.55A16.3,16.3,0,0,0,89.66,151.29Zm49.23-13.15a10,10,0,0,1-9.5,6.86H89.66a10,10,0,0,1-9.5-6.86Z"/><path d="M19.91,17.68A11.39,11.39,0,0,1,31.31,6.29H68.13a3.15,3.15,0,0,0,3.14-3.15h0A3.15,3.15,0,0,0,68.13,0H31.31A17.69,17.69,0,0,0,13.62,17.68V131h6.29Z"/><path d="M187.74,6.29a11.39,11.39,0,0,1,11.39,11.39V131h6.29V17.68A17.68,17.68,0,0,0,187.74,0H84.89a3.15,3.15,0,0,0-3.14,3.14h0a3.15,3.15,0,0,0,3.14,3.15Z"/><path d="M73.55,137.3a16,16,0,0,1-.18-2.3v-3.15h72.31V135a16,16,0,0,1-.18,2.3h59.92V131H13.62v6.29Z"/><path d="M145.68,135v-3.15H73.37V135a16,16,0,0,0,.18,2.3h72A16,16,0,0,0,145.68,135Z"/><path d="M185.51,118.43h-152V46.12H29.35V39.83h4.19V19.91h152V39.83h3.14v6.29h-3.14V74.41a3.15,3.15,0,0,0,3.14,3.15h0a3.15,3.15,0,0,0,3.15-3.15V19.12a5.49,5.49,0,0,0-5.49-5.5H32.74a5.49,5.49,0,0,0-5.49,5.5V119.23a5.49,5.49,0,0,0,5.49,5.49H186.31a5.49,5.49,0,0,0,5.49-5.49V89.09a3.15,3.15,0,0,0-3.15-3.15h0a3.15,3.15,0,0,0-3.14,3.15Z"/><rect x="33.54" y="39.83" width="151.97" height="6.29"/><rect x="29.35" y="39.83" width="4.19" height="6.29"/><rect x="185.51" y="39.83" width="3.14" height="6.29"/><path d="M57.64,26.2H41.92a3.15,3.15,0,0,0,0,6.29H57.64a3.15,3.15,0,1,0,0-6.29Z"/><path d="M84.89,26.2H69.17a3.15,3.15,0,0,0,0,6.29H84.89a3.15,3.15,0,1,0,0-6.29Z"/><path d="M112.14,26.2H96.42a3.15,3.15,0,0,0,0,6.29h15.72a3.15,3.15,0,1,0,0-6.29Z"/><path d="M178.17,52.4H162.45a3.15,3.15,0,0,0,0,6.29h15.72a3.15,3.15,0,1,0,0-6.29Z"/><path d="M121.58,72.32H137.3a3.15,3.15,0,0,0,0-6.29H121.58a3.15,3.15,0,1,0,0,6.29Z"/><path d="M178.17,92.23H162.45a3.15,3.15,0,0,0,0,6.29h15.72a3.15,3.15,0,1,0,0-6.29Z"/><path d="M137.3,104.81H121.58a3.15,3.15,0,1,0,0,6.29H137.3a3.15,3.15,0,0,0,0-6.29Z"/><path d="M178.17,79.65H162.45a3.15,3.15,0,0,0,0,6.29h15.72a3.15,3.15,0,1,0,0-6.29Z"/><path d="M121.58,58.69h28.29a3.15,3.15,0,1,0,0-6.29H121.58a3.15,3.15,0,1,0,0,6.29Z"/><path d="M178.17,66h-28.3a3.15,3.15,0,0,0,0,6.29h28.3a3.15,3.15,0,1,0,0-6.29Z"/><path d="M121.58,85.94h28.29a3.15,3.15,0,1,0,0-6.29H121.58a3.15,3.15,0,1,0,0,6.29Z"/><path d="M121.58,98.52h28.29a3.15,3.15,0,1,0,0-6.29H121.58a3.15,3.15,0,1,0,0,6.29Z"/><path d="M178.17,104.81h-28.3a3.15,3.15,0,0,0,0,6.29h28.3a3.15,3.15,0,1,0,0-6.29Z"/><path d="M77.3,65.08a3.14,3.14,0,0,0-3.83,2.26L66.13,95.63a3.15,3.15,0,1,0,6.09,1.58l7.33-28.3A3.14,3.14,0,0,0,77.3,65.08Z"/><path d="M104.41,80.05,90.26,65.9a3.14,3.14,0,1,0-4.44,4.45L98,82.54l2-2a3.14,3.14,0,0,1,4.45,0,3.08,3.08,0,0,1,.9,2A3.15,3.15,0,0,0,104.41,80.05Z"/><path d="M102.19,85.42A3.17,3.17,0,0,1,100,84.5l-2-2L85.82,94.72a3.14,3.14,0,1,0,4.44,4.45L104.41,85a3.13,3.13,0,0,0,.9-2.48,3.12,3.12,0,0,1-3.12,2.88Z"/><path d="M100,80.58l-2,2,2,2a3.15,3.15,0,0,0,4.45,0,3.12,3.12,0,0,0,.9-2,3.08,3.08,0,0,0-.9-2A3.14,3.14,0,0,0,100,80.58Z"/><path d="M59.34,64.85a3.15,3.15,0,0,0-4.44,0L40.75,79a3.15,3.15,0,0,0-.9,2.49,3.08,3.08,0,0,1,.9-2,3.13,3.13,0,0,1,4.44,0l2,2L59.34,69.3A3.14,3.14,0,0,0,59.34,64.85Z"/><path d="M43,84.37a3.12,3.12,0,0,1-3.12-2.88,3.13,3.13,0,0,0,.9,2.48L54.9,98.12a3.14,3.14,0,1,0,4.44-4.44L47.16,81.49l-2,2A3.13,3.13,0,0,1,43,84.37Z"/><path d="M40.75,79.53a3.08,3.08,0,0,0-.9,2,3.13,3.13,0,0,0,5.34,2l2-2-2-2A3.13,3.13,0,0,0,40.75,79.53Z"/></g></g></g></svg>