<svg xmlns="http://www.w3.org/2000/svg" viewBox="0 0 153.4 104.98"><defs><style>.cls-1{fill:none;}.cls-2{fill:#ace0b2;}</style></defs><g id="Calque_2" data-name="Calque 2"><g id="logo"><path class="cls-1" d="M89.09,11.28A136.51,136.51,0,0,0,66,18.55,56,56,0,0,0,46.31,37C41.5,44.66,39.15,52.78,40,60.79a28.79,28.79,0,0,0,3.26,10.32,28.47,28.47,0,0,0,7.21,8.76c6.28,5,14.34,7.42,23.21,7.59a54.63,54.63,0,0,0,18.15-2.93q2.15-1,4.26-2A148.21,148.21,0,0,0,109.57,75a50.13,50.13,0,0,0,7.5-7.24l-9.29-17.28L71.06,70.18l-3.54-6.6L110.8,40.25l13,24.16A80.86,80.86,0,0,0,137,50c5.24-7.46,7.61-14,7.61-19.86a16.92,16.92,0,0,0-2-8.27,18,18,0,0,0-6-6.57c-5.83-4.13-14.54-6.42-26.2-6.42a101.88,101.88,0,0,0-20.82,2.31v.05Z"/><path class="cls-2" d="M150.37,17.72a27.26,27.26,0,0,0-8.63-9.6C134.43,3,123.73,0,110.44,0c-18.31,0-38.83,5.61-57,14.54S19,36.1,9.23,50q-1.47,2.09-2.7,4.14A4.39,4.39,0,1,0,14,58.65c.7-1.19,1.49-2.41,2.35-3.65,5.86-8.34,14.28-16.12,24.23-22.87-.2.3-.4.59-.59.9-5.57,8.77-8.47,18.9-7.35,28.57a36.72,36.72,0,0,0,4,13.05,36.35,36.35,0,0,0,9.22,11,41.64,41.64,0,0,0,17.82,8.14A102,102,0,0,1,43,96.12c-11.59,0-20.3-2.37-26.2-6.43a20,20,0,0,1-6-6.57,16.85,16.85,0,0,1-1.92-8.26A23.38,23.38,0,0,1,9.19,71a4.46,4.46,0,0,0-3-5h0A4.44,4.44,0,0,0,.49,69.47,30.52,30.52,0,0,0,0,74.86a26.2,26.2,0,0,0,3.1,12.4,28.05,28.05,0,0,0,8.64,9.59C19,102,29.75,105,43,105c18.31,0,38.91-5.62,57.07-14.62S134.58,68.88,144.25,55c6.2-8.79,9.15-17.42,9.15-24.88A25.8,25.8,0,0,0,150.37,17.72ZM137,50a80.86,80.86,0,0,1-13.22,14.43l-13-24.16L67.52,63.58l3.54,6.6,36.72-19.74L118.11,69c-2.72,2.06-5.56,4.06-8.54,6a148.21,148.21,0,0,1-13.45,7.57q-2.12,1-4.26,2a54.63,54.63,0,0,1-18.15,2.93c-8.87-.17-16.93-2.54-23.21-7.59a28.47,28.47,0,0,1-7.21-8.76A28.79,28.79,0,0,1,40,60.79c-.88-8,1.47-16.13,6.28-23.78A56,56,0,0,1,66,18.55a136.51,136.51,0,0,1,23.1-7.27l.53-.11a101.88,101.88,0,0,1,20.82-2.31c11.66,0,20.37,2.29,26.2,6.42a18,18,0,0,1,6,6.57,16.92,16.92,0,0,1,2,8.27C144.62,36,142.25,42.52,137,50Z"/></g></g></svg>