<svg xmlns="http://www.w3.org/2000/svg" viewBox="0 0 153.4 104.98"><defs><style>.cls-1{fill:none;}</style></defs><g id="Calque_2" data-name="Calque 2"><g id="logo"><path class="cls-1" d="M142.62,21.85a18,18,0,0,0-6-6.57c-5.83-4.13-14.54-6.42-26.2-6.42a92.19,92.19,0,0,0-9.3.49,48,48,0,0,1,10.66,3.26,59.86,59.86,0,0,1,22.86,18.22,58.89,58.89,0,0,1,6.85,11.57,28.62,28.62,0,0,0,3.11-12.28A16.92,16.92,0,0,0,142.62,21.85Z"/><path class="cls-1" d="M109,18.86c-7.47-3.24-15.11-4.31-22.28-2.49A26.32,26.32,0,0,0,77.38,21a26.62,26.62,0,0,0-6.64,7.38c-3.79,6.36-4.91,14-3.81,22.26a51.8,51.8,0,0,0,10.21,24A51.14,51.14,0,0,0,88.93,85.82q3.63-1.54,7.19-3.29A136.35,136.35,0,0,0,119,68.36L94.76,36.45l5.47-4.16L123.4,62.75,132.23,56A69.18,69.18,0,0,0,137,50l.11-.16A51,51,0,0,0,129.19,35,51.71,51.71,0,0,0,109,18.86Z"/><path d="M150.38,17.72a27.39,27.39,0,0,0-8.64-9.6C134.43,3,123.73,0,110.44,0c-18.31,0-38.83,5.61-57,14.54S19,36.1,9.23,50C8,51.73,6.88,53.48,5.89,55.21a4.39,4.39,0,0,0,7.66,4.28c.83-1.46,1.77-3,2.84-4.49,8.93-12.7,23.77-24.14,41-32.56A145,145,0,0,1,72.55,16a33.66,33.66,0,0,0-7.64,8.83c-4.62,7.65-6,17.22-4.74,26.67A58.86,58.86,0,0,0,71.68,78.75a58.07,58.07,0,0,0,9.73,10C68.54,93.42,55.25,96.12,43,96.12c-11.59,0-20.3-2.37-26.2-6.43a20,20,0,0,1-6-6.57,16.85,16.85,0,0,1-1.92-8.26,21.44,21.44,0,0,1,.2-3A4.42,4.42,0,0,0,.31,70.61,29.65,29.65,0,0,0,0,74.86a26.2,26.2,0,0,0,3.1,12.4,28.05,28.05,0,0,0,8.64,9.59C19,102,29.75,105,43,105c18.31,0,38.91-5.62,57.07-14.62,17.71-8.68,33.59-20.77,43.35-34.18.29-.39.59-.79.87-1.18l1-1.47c5.51-8.27,8.15-16.37,8.15-23.41A25.91,25.91,0,0,0,150.38,17.72ZM137,50A69.18,69.18,0,0,1,132.23,56a87.68,87.68,0,0,1-7.64,7.67L100.23,32.29l-5.47,4.16L119,68.36A136.35,136.35,0,0,1,96.12,82.53q-3.56,1.74-7.19,3.29A51.14,51.14,0,0,1,77.14,74.59a51.8,51.8,0,0,1-10.21-24c-1.1-8.22,0-15.9,3.81-22.26A26.62,26.62,0,0,1,77.38,21a26.32,26.32,0,0,1,9.36-4.58c7.17-1.82,14.81-.75,22.28,2.49A51.71,51.71,0,0,1,129.19,35a51,51,0,0,1,7.93,14.83Zm4.5-7.58a58.89,58.89,0,0,0-6.85-11.57A59.86,59.86,0,0,0,111.8,12.61a48,48,0,0,0-10.66-3.26,92.19,92.19,0,0,1,9.3-.49c11.66,0,20.37,2.29,26.2,6.42a18,18,0,0,1,6,6.57,16.92,16.92,0,0,1,2,8.27A28.62,28.62,0,0,1,141.51,42.4Z"/></g></g></svg>