<svg xmlns="http://www.w3.org/2000/svg" viewBox="0 0 208 155"><defs><style>.cls-1{fill:#ace0b2;}.cls-2{fill:#eff8f9;}.cls-3{fill:#cbe4e6;}.cls-4{fill:#f06c57;}.cls-5{fill:#fed299;}.cls-6{fill:none;}</style></defs><g id="Calque_2" data-name="Calque 2"><g id="education"><g id="Calque_18" data-name="Calque 18"><rect class="cls-1" x="5" y="3" width="197" height="149" rx="10.7"/><polygon class="cls-2" points="15 32 16 123 27 126 32.96 137 32.96 140 176 140 178 132.8 186 124.92 192 123 192 32.5 186 31.08 178 24.15 176 13.2 32.96 13.2 32.08 23 25 31 15 32"/><rect class="cls-3" x="54" y="27" width="97" height="10"/><polygon class="cls-4" points="136.49 97.58 127.69 113 135.91 113 140 119.7 151 99.98 136.49 97.58"/><polygon class="cls-4" points="154.69 100.92 166 119 169.64 113 178 113 167.69 94.92 154.69 100.92"/><circle class="cls-5" cx="153.5" cy="75.5" r="23.5"/></g><path class="cls-6" d="M159.72,101.87c-.29.09-.59.15-.88.23l6.85,11.82,1.41-2.58.19-.22a3.33,3.33,0,0,1,2.16-1.19l.21,0,3.36,0-6.55-11.16a26.78,26.78,0,0,1-6.75,3.09Z"/><path class="cls-6" d="M20,16a3,3,0,1,1-3,3A3,3,0,0,1,20,16Zm0,123a3,3,0,1,1,3-3A3,3,0,0,1,20,139Zm169,1a3,3,0,1,1,3-3A3,3,0,0,1,189,140Zm0-123a3,3,0,1,1-3,3A3,3,0,0,1,189,17Z"/><rect class="cls-6" x="57" y="29" width="92" height="7" rx="1.43"/><path class="cls-6" d="M78,93a3,3,0,0,1,3-3H93a3,3,0,0,1,0,6H81A3,3,0,0,1,78,93Zm35,23H87a3,3,0,0,1,0-6h26a3,3,0,0,1,0,6Zm0-32H59a3,3,0,0,1,0-6h54a3,3,0,0,1,0,6ZM93,59H59a3,3,0,0,1,0-6H93a3,3,0,0,1,0,6Zm20,12H100a3,3,0,0,1,0-6h13a3,3,0,0,1,0,6Zm66,5a26.9,26.9,0,0,1-7.8,19l9.34,15.94a3.38,3.38,0,0,1-2.48,5.06l-.22,0-6.41-.08-2.89,5.26-.18.23a3.41,3.41,0,0,1-2.6,1.22l-.33,0a3.39,3.39,0,0,1-2.65-1.75l-9.91-17.1-10,17.25a3.38,3.38,0,0,1-2.61,1.68h-.33a3.38,3.38,0,0,1-2.6-1.22l-.18-.22L134.26,116l-6.42.08-.22,0a3.39,3.39,0,0,1-2.48-5v0l8.77-15A27,27,0,1,1,179,76ZM51,30.43A7.43,7.43,0,0,1,58.43,23h89.14A7.43,7.43,0,0,1,155,30.43v4.14A7.43,7.43,0,0,1,147.57,42H58.43A7.43,7.43,0,0,1,51,34.57ZM28,53H49a3,3,0,0,1,0,6H28a3,3,0,0,1,0-6Zm0,12H88a3,3,0,0,1,0,6H28a3,3,0,0,1,0-6Zm0,12H46a3,3,0,0,1,0,6H28a3,3,0,0,1,0-6Zm0,13H68a3,3,0,0,1,0,6H28a3,3,0,0,1,0-6Zm0,20H54a3,3,0,0,1,0,6H28a3,3,0,0,1,0-6Z"/><circle class="cls-6" cx="152.5" cy="76.5" r="9.5"/><path class="cls-6" d="M132.67,110l3.36,0,.21,0a3.33,3.33,0,0,1,2.16,1.19l.19.22L140,114l6.68-11.52a26.78,26.78,0,0,1-7.87-2.92Z"/><path class="cls-6" d="M148.64,96.73a21,21,0,0,0,9.36-.61l.86,2.88L158,96.12A21,21,0,0,0,173,76a21,21,0,1,0-24.36,20.73ZM137,76.5A15.5,15.5,0,1,1,152.5,92,15.51,15.51,0,0,1,137,76.5Z"/><path d="M16.87,149A10.87,10.87,0,0,1,6,138.13V16.87A10.87,10.87,0,0,1,16.87,6H157a3,3,0,0,0,3-3h0a3,3,0,0,0-3-3H16.87A16.87,16.87,0,0,0,0,16.87V138.13A16.87,16.87,0,0,0,16.87,155H56a3,3,0,0,0,3-3h0a3,3,0,0,0-3-3Z"/><path d="M191.13,0H174a3,3,0,0,0-3,3h0a3,3,0,0,0,3,3h17.13A10.87,10.87,0,0,1,202,16.87V138.13A10.87,10.87,0,0,1,191.13,149H73a3,3,0,0,0-3,3h0a3,3,0,0,0,3,3H191.13A16.87,16.87,0,0,0,208,138.13V16.87A16.87,16.87,0,0,0,191.13,0Z"/><path d="M30,12.21a3,3,0,0,0-.47,2.65,11,11,0,0,1,.07,6.05,10.89,10.89,0,0,1-7.7,7.7,11,11,0,0,1-6.05-.07A3,3,0,0,0,12,31.41V67a3,3,0,0,0,3,3h0a3,3,0,0,0,3-3V35a17.25,17.25,0,0,0,5.46-.56A16.81,16.81,0,0,0,35.4,22.49,17.16,17.16,0,0,0,36,17H174c0,.33,0,.67,0,1a17,17,0,0,0,15,16.88v86.24A17,17,0,0,0,174,137H36a17,17,0,0,0-17-16c-.33,0-.67,0-1,0V84a3,3,0,0,0-3-3h0a3,3,0,0,0-3,3v40.59a3,3,0,0,0,3.86,2.87A11.2,11.2,0,0,1,19,127a11,11,0,0,1,11,11,10.65,10.65,0,0,1-.13,1.57,3,3,0,0,0,3,3.43H177.16a3,3,0,0,0,3-3.42A10.89,10.89,0,0,1,180,138a11,11,0,0,1,11-11c.22,0,.44,0,.66,0h.13a3,3,0,0,0,3.21-3V32a3,3,0,0,0-3.21-3h-.12c-.22,0-.44,0-.67,0a11,11,0,0,1-11-11,11.2,11.2,0,0,1,.46-3.14A3,3,0,0,0,177.59,11H32.41A3,3,0,0,0,30,12.21Z"/><circle cx="20" cy="19" r="3"/><circle cx="20" cy="136" r="3"/><circle cx="189" cy="20" r="3"/><circle cx="189" cy="137" r="3"/><path d="M58.43,42h89.14A7.43,7.43,0,0,0,155,34.57V30.43A7.43,7.43,0,0,0,147.57,23H58.43A7.43,7.43,0,0,0,51,30.43v4.14A7.43,7.43,0,0,0,58.43,42ZM57,30.43A1.43,1.43,0,0,1,58.43,29h89.14A1.43,1.43,0,0,1,149,30.43v4.14A1.43,1.43,0,0,1,147.57,36H58.43A1.43,1.43,0,0,1,57,34.57Z"/><path d="M28,59H49a3,3,0,0,0,0-6H28a3,3,0,0,0,0,6Z"/><path d="M93,53H59a3,3,0,0,0,0,6H93a3,3,0,0,0,0-6Z"/><path d="M113,65H100a3,3,0,0,0,0,6h13a3,3,0,0,0,0-6Z"/><path d="M113,78H59a3,3,0,0,0,0,6h54a3,3,0,0,0,0-6Z"/><path d="M96,93a3,3,0,0,0-3-3H81a3,3,0,0,0,0,6H93A3,3,0,0,0,96,93Z"/><path d="M28,71H88a3,3,0,0,0,0-6H28a3,3,0,0,0,0,6Z"/><path d="M28,83H46a3,3,0,0,0,0-6H28a3,3,0,0,0,0,6Z"/><path d="M28,96H68a3,3,0,0,0,0-6H28a3,3,0,0,0,0,6Z"/><path d="M28,116H54a3,3,0,0,0,0-6H28a3,3,0,0,0,0,6Z"/><path d="M113,110H87a3,3,0,0,0,0,6h26a3,3,0,0,0,0-6Z"/><path d="M168,76.5A15.5,15.5,0,1,0,152.5,92,15.51,15.51,0,0,0,168,76.5Zm-25,0a9.5,9.5,0,1,1,9.5,9.5A9.51,9.51,0,0,1,143,76.5Z"/><path d="M125,76a27.12,27.12,0,0,0,8.92,20l3-5.08,2.69,2a21,21,0,1,1,23.81.71l1.79,2.76,5.1-3L171.2,95A27,27,0,1,0,125,76Z"/><path d="M159.72,101.87h0L158.86,99,158,96.12a21,21,0,0,1-9.36.61l.41.06,6.2,2.87-.83,1.42,2.87-1.66,1.55,2.68c.29-.08.59-.14.88-.23Z"/><path d="M152,103a27.33,27.33,0,0,1-4.31-.35l.95-5.92h0a20.92,20.92,0,0,1-9.06-3.8L136,97.76a26.79,26.79,0,0,1-2.1-1.73l-8.77,15v0a3.39,3.39,0,0,0,2.48,5l.22,0,6.42-.08,2.89,5.26.18.22a3.38,3.38,0,0,0,2.6,1.22h.33a3.38,3.38,0,0,0,2.61-1.68l10-17.25-.45-.78Zm-14.35,15,0-.09ZM140,114l-1.41-2.57-.19-.22a3.33,3.33,0,0,0-2.16-1.19l-.21,0-3.36,0,6.14-10.47a26.78,26.78,0,0,0,7.87,2.92Z"/><path d="M139.58,92.93l-2.69-2-3,5.08a26.79,26.79,0,0,0,2.1,1.73Z"/><path d="M154.42,101.08l.83-1.42-6.2-2.87-.41-.06h0l-.95,5.92A27.33,27.33,0,0,0,152,103l.42,0-.33-.55Z"/><path d="M166.65,98.68l-.18.1L173,109.94l-3.36,0-.21,0a3.33,3.33,0,0,0-2.16,1.19l-.19.22-1.41,2.58-6.85-11.82a26.91,26.91,0,0,1-5.5.85l-.47.81,9.91,17.1a3.39,3.39,0,0,0,2.65,1.75l.33,0a3.41,3.41,0,0,0,2.6-1.22l.18-.23,2.89-5.26,6.41.08.22,0a3.38,3.38,0,0,0,2.48-5.06L171.2,95A27.3,27.3,0,0,1,166.65,98.68Zm1.3,19.14.06.1Z"/><path d="M165.18,96.4l1.47,2.28A27.3,27.3,0,0,0,171.2,95l-.92-1.56Z"/><path d="M154.42,101.08,153.34,103a26.91,26.91,0,0,0,5.5-.85l-1.55-2.68Z"/><path d="M152.42,103l.45.78.47-.81Z"/><path d="M152.09,102.43l.33.55.92,0,1.08-1.87Z"/><path d="M158.86,99l.86,2.87a26.78,26.78,0,0,0,6.75-3.09l-1.37-2.34.08,0-1.79-2.76A20.75,20.75,0,0,1,158,96.12Z"/><polygon points="159.72 101.87 158.86 99 159.72 101.87 159.72 101.87"/><path d="M166.47,98.78l.18-.1-1.47-2.28-.08,0Z"/></g></g></svg>