<svg xmlns="http://www.w3.org/2000/svg" viewBox="0 0 212 159"><defs><style>.cls-1{fill:#d4f1d8;}.cls-2{fill:#ace0b2;}.cls-3{fill:#cbe4e6;}.cls-4{fill:#fed299;}.cls-5{fill:#f06c57;}.cls-6{fill:#eff8f9;}.cls-7{fill:none;}</style></defs><g id="Calque_2" data-name="Calque 2"><g id="transport"><g id="Calque_23" data-name="Calque 23"><polygon class="cls-1" points="18 4.11 132.77 3.04 144 4.11 185.56 54 201.09 76.56 204.01 101.06 10 100.83 9 61.96 9 15.56 18 4.11"/><polygon class="cls-2" points="9 105.26 9 123 27.5 123 42.09 114.65 53.88 118.28 62 128.5 64.45 140.96 144 141 145.91 127.58 156.16 116.34 170.84 116.34 180.5 123 203 123 203 98 9 100.83 9 105.26"/><polyline class="cls-3" points="36.66 19.99 87.48 19.99 94.26 28 93 70 87.74 76.56 40 76.56 33 68.22 33 26.48 36.66 19.99"/><polygon class="cls-3" points="117.74 25 117.74 67.11 120.22 73.53 125.56 76.56 169 76.56 174 71.02 174 64 138.92 20.24 123.22 19.99 117.74 25"/><polyline class="cls-4" points="200.56 87.68 193.26 90.99 189.13 97.04 189.13 105.13 192.85 111.91 202.02 114.65 200.56 87"/><path class="cls-5" d="M44,116.19a20.37,20.37,0,1,0,20.37,20.37A20.37,20.37,0,0,0,44,116.19Zm-.5,26a5.67,5.67,0,1,1,5.67-5.67A5.67,5.67,0,0,1,43.5,142.23Z"/><path class="cls-5" d="M162.5,116.19a20.37,20.37,0,1,0,20.37,20.37A20.37,20.37,0,0,0,162.5,116.19Zm1,26a5.67,5.67,0,1,1,5.67-5.67A5.67,5.67,0,0,1,163.5,142.23Z"/><polygon class="cls-6" points="5.37 123.1 27.5 123 23.87 133.43 24.43 142.23 4 140.61 5.37 123.1"/><polygon class="cls-6" points="209.04 142.31 186.91 142.41 184.41 131.43 181.77 123.55 210.41 124.8 209.04 142.31"/></g><g id="Calque_14" data-name="Calque 14"><path class="cls-7" d="M7,126.2a1.79,1.79,0,0,0-1,1.6v8.4A1.81,1.81,0,0,0,7.8,138H11a16.8,16.8,0,0,1-4-10.87Z"/><path class="cls-7" d="M170.83,144a10.45,10.45,0,0,1-14.66,0H149a17,17,0,0,0,30,0h-8.16Z"/><path class="cls-7" d="M164,119a17,17,0,0,0-17,17,16.52,16.52,0,0,0,.13,2h6a10.5,10.5,0,1,1,20.76,0H178V126.38A17,17,0,0,0,164,119Z"/><path class="cls-7" d="M163.5,132a4.51,4.51,0,0,0-4.5,4.5,4.39,4.39,0,0,0,.28,1.5h8.44a4.39,4.39,0,0,0,.28-1.5A4.51,4.51,0,0,0,163.5,132Z"/><path class="cls-7" d="M48,136.5a4.5,4.5,0,0,0-9,0,4.39,4.39,0,0,0,.28,1.5h8.44A4.39,4.39,0,0,0,48,136.5Z"/><path class="cls-7" d="M211.43,101A10,10,0,0,0,206,92.11v17.78A10,10,0,0,0,211.43,101Z"/><path class="cls-7" d="M204.2,138a1.81,1.81,0,0,0,1.8-1.8v-8.4a1.64,1.64,0,0,0,0-.22A16.8,16.8,0,0,1,202,138Z"/><path class="cls-7" d="M187,136c0,.67,0,1.34-.09,2h2.22A10.87,10.87,0,0,0,200,127.13V126H184.71A22.84,22.84,0,0,1,187,136Z"/><path class="cls-7" d="M185.7,104H13v16H27.5A23,23,0,0,1,67,136c0,.67,0,1.34-.09,2h74.18c-.05-.66-.09-1.33-.09-2a23,23,0,0,1,39.5-16H200v-3.06A16.05,16.05,0,0,1,185.7,104Z"/><path class="cls-7" d="M191.41,101a10,10,0,0,0,8.59,9.9V91.1A10,10,0,0,0,191.41,101Z"/><path class="cls-7" d="M21.06,137.62c0-.54-.06-1.07-.06-1.62a22.87,22.87,0,0,1,2-9.36V126H13v1.13A10.86,10.86,0,0,0,21.06,137.62Z"/><path class="cls-7" d="M33.12,138a10.5,10.5,0,1,1,20.76,0h7a16.52,16.52,0,0,0,.13-2,17,17,0,0,0-32-8v10Z"/><path class="cls-7" d="M134.56,17h-6.85c-4.13,0-7.49,3.81-7.49,8.5v39c0,4.69,3.36,8.5,7.49,8.5H165a7.17,7.17,0,0,0,5.81-3.16l.07-.1a4.79,4.79,0,0,0-.18-5.38L137.9,18.82A4.14,4.14,0,0,0,134.56,17Z"/><rect class="cls-7" x="35" y="17" width="58" height="56" rx="6.61"/><path d="M23,126.64A23.11,23.11,0,0,1,27.5,120H13v6H23Z"/><path d="M11,138H7.8A1.81,1.81,0,0,1,6,136.2v-8.4a1.79,1.79,0,0,1,1-1.6V120a7.82,7.82,0,0,0-7,7.76v8.4A7.81,7.81,0,0,0,7.8,144H22.44l0-.07A16.84,16.84,0,0,1,11,138Z"/><path d="M184.71,126H200v-6H180.5A23.35,23.35,0,0,1,184.71,126Z"/><path d="M206,127.58a1.64,1.64,0,0,1,0,.22v8.4a1.81,1.81,0,0,1-1.8,1.8H202a16.81,16.81,0,0,1-12.89,6H204.2a7.81,7.81,0,0,0,7.8-7.8v-8.4a7.81,7.81,0,0,0-6-7.58v6.91C206,127.28,206,127.43,206,127.58Z"/><path d="M43.5,147a10.46,10.46,0,0,0,7.33-3H36.17A10.46,10.46,0,0,0,43.5,147Z"/><path d="M43.5,126a10.42,10.42,0,0,0-10.38,12h6.16a4.39,4.39,0,0,1-.28-1.5,4.5,4.5,0,0,1,9,0,4.39,4.39,0,0,1-.28,1.5h6.16A10.42,10.42,0,0,0,43.5,126Z"/><path d="M21,136c0,.55,0,1.08.06,1.62A11.41,11.41,0,0,0,23,138V126.64A22.87,22.87,0,0,0,21,136Z"/><path d="M44,113a22.93,22.93,0,0,0-16.5,7H29v8a17,17,0,0,1,32,8,16.52,16.52,0,0,1-.13,2h6c0-.66.09-1.33.09-2A23,23,0,0,0,44,113Z"/><path d="M23,138c.29,0,.58,0,.87,0h3.26a16.52,16.52,0,0,1-.13-2,16.92,16.92,0,0,1,2-8v-8H27.5a23.11,23.11,0,0,0-4.5,6.64Z"/><path d="M22.41,143.93l0,.07h1.43C23.38,144,22.89,144,22.41,143.93Z"/><path d="M163.5,147a10.46,10.46,0,0,0,7.33-3H156.17A10.46,10.46,0,0,0,163.5,147Z"/><path d="M159,136.5a4.5,4.5,0,0,1,9,0,4.39,4.39,0,0,1-.28,1.5h6.16a10.5,10.5,0,1,0-20.76,0h6.16A4.39,4.39,0,0,1,159,136.5Z"/><path d="M184.71,126H184v12h2.91c.05-.66.09-1.33.09-2A22.84,22.84,0,0,0,184.71,126Z"/><path d="M164,153a17,17,0,0,1-15-9h-6.57a23,23,0,0,0,43.12,0H179A17,17,0,0,1,164,153Z"/><path d="M147,136a17,17,0,0,1,31-9.62V120h2.5A23,23,0,0,0,141,136c0,.67,0,1.34.09,2h6A16.52,16.52,0,0,1,147,136Z"/><path d="M184.71,126a23.35,23.35,0,0,0-4.21-6H178v6.38a16.88,16.88,0,0,1,3,9.62,16.52,16.52,0,0,1-.13,2H184V126Z"/><path d="M185.7,104a15.66,15.66,0,0,1,0-6H13v6Z"/><path d="M42.89,17A11.71,11.71,0,0,0,31,28.5v39A11.71,11.71,0,0,0,42.89,79H85.11A11.71,11.71,0,0,0,97,67.5v-39A11.71,11.71,0,0,0,85.11,17ZM91.34,28.5v39a6.13,6.13,0,0,1-6.23,6H42.89a6.13,6.13,0,0,1-6.23-6v-39a6.13,6.13,0,0,1,6.23-6H85.11A6.13,6.13,0,0,1,91.34,28.5Z"/><path d="M137.42,6c1,.2,5.57,1.23,8.46,4.12,3.83,3.84,11.7,13.66,11.78,13.75A3,3,0,0,0,160,25a2.93,2.93,0,0,0,1.87-.66,3,3,0,0,0,.47-4.21C162,19.71,154.19,10,150.12,5.88c-4.63-4.64-11.66-5.8-12-5.84a2.86,2.86,0,0,0-1,0l5.94,6Z"/><path d="M200,82.86,202.17,85a16.24,16.24,0,0,1,3.71.6,35.52,35.52,0,0,0-5.38-16.29c-6-9-30.14-38.95-31.17-40.22a3,3,0,1,0-4.66,3.76c.24.31,25,31,30.83,39.78a28.93,28.93,0,0,1,4.28,12.41H200Z"/><path d="M133.08,3.35,135.17,6h2.25l-.2,0a3,3,0,0,1-2.48-3.44c.21-1.3,1.9-2.25,3.13-2.46l-.05,0h-2l-3,3A3,3,0,0,1,133.08,3.35Z"/><path d="M134.74,2.52A3,3,0,0,0,137.22,6l.2,0h5.72L137.2.05A3,3,0,0,0,134.74,2.52Z"/><path d="M13,120V104H9V98h4V16.87A10.87,10.87,0,0,1,23.87,6h99.28l-.91-.91L127.33,0H23.87A16.87,16.87,0,0,0,7,16.87V120a7,7,0,0,1,.8,0Z"/><path d="M201.42,117c-.48,0-.95,0-1.42-.07V120h4.2a7.65,7.65,0,0,1,1.8.22v-3.88A16.1,16.1,0,0,1,201.42,117Z"/><path d="M206,109.89V92.11a1.63,1.63,0,0,0-.19-.09A3,3,0,0,1,203,94h-.24A3,3,0,0,1,200,91.1h0v19.8a11.17,11.17,0,0,0,1.42.11A9.94,9.94,0,0,0,206,109.89Z"/><path d="M11,138a16.84,16.84,0,0,0,11.43,5.93A23,23,0,0,1,21.09,138Z"/><path d="M7.8,126H13v-6H7.8a7,7,0,0,0-.8,0v6.16A1.79,1.79,0,0,1,7.8,126Z"/><path d="M202,138H186.91a22.67,22.67,0,0,1-1.35,6h3.57A16.81,16.81,0,0,0,202,138Z"/><path d="M200,120v6h4.2a1.8,1.8,0,0,1,1.78,1.58c0-.15,0-.3,0-.45v-6.91a7.65,7.65,0,0,0-1.8-.22Z"/><path d="M43.5,141a4.49,4.49,0,0,1-4.22-3H33.12a10.47,10.47,0,0,0,3.05,6H50.83a10.47,10.47,0,0,0,3.05-6H47.72A4.49,4.49,0,0,1,43.5,141Z"/><path d="M59,144h3v-6H60.87A16.78,16.78,0,0,1,59,144Z"/><path d="M21.09,138H23v0a11.41,11.41,0,0,1-1.94-.34Z"/><path d="M29,144h0v0Z"/><path d="M27.13,138H23.87c-.29,0-.58,0-.87,0v0H21.09a23,23,0,0,0,1.32,5.93c.48,0,1,.07,1.46.07H29v0A16.86,16.86,0,0,1,27.13,138Z"/><path d="M173.88,138h-6.16a4.47,4.47,0,0,1-8.44,0h-6.16a10.47,10.47,0,0,0,3,6h14.66A10.47,10.47,0,0,0,173.88,138Z"/><path d="M144,138v6h5a16.78,16.78,0,0,1-1.88-6Z"/><path d="M184,138h-3.13a16.78,16.78,0,0,1-1.88,6h6.57a22.67,22.67,0,0,0,1.35-6Z"/><rect x="9" y="98" width="4" height="6"/><path d="M66.91,138a22.67,22.67,0,0,1-1.35,6h76.88a22.67,22.67,0,0,1-1.35-6Z"/><path d="M62,138v6h3.56a22.67,22.67,0,0,0,1.35-6Z"/><path d="M144,138h-2.91a22.67,22.67,0,0,0,1.35,6H144Z"/><path d="M200,91.1A3,3,0,0,0,202.76,94H203a3,3,0,0,0,2.81-2,9.82,9.82,0,0,0-4.39-1A9.33,9.33,0,0,0,200,91.1Z"/><path d="M202.17,85,200,82.86v2.2c.47,0,.94-.07,1.42-.07C201.68,85,201.92,85,202.17,85Z"/><path d="M123.15,6h4.68a3,3,0,0,1,4.94-3l3-3h-8.48l-5.09,5.09Z"/><path d="M132.77,3l-2.05,2.05.91.91h3.54l-2.09-2.65A3,3,0,0,0,132.77,3Z"/><path d="M132.77,3a3,3,0,0,0-4.94,3h3.8l-.91-.91Z"/><path d="M134.56,17h-6.85a13.37,13.37,0,0,0-13.49,13.22V65.78A13.37,13.37,0,0,0,127.71,79H165a13.55,13.55,0,0,0,10.73-5.22,9.18,9.18,0,0,0-.16-11.33L142.76,20.93A10.51,10.51,0,0,0,134.56,17Zm36.32,53.56-.07.09A7.38,7.38,0,0,1,165,73.53H127.71a7.63,7.63,0,0,1-7.49-7.75V30.22a7.63,7.63,0,0,1,7.49-7.75h6.85a4.25,4.25,0,0,1,3.34,1.66l32.8,41.52A4.06,4.06,0,0,1,170.88,70.56Z"/><path d="M191,104h-5.3A16.05,16.05,0,0,0,200,116.94v-6a10,10,0,0,1,0-19.8V87.68c0-.77-.11-1.65-.22-2.61A16.06,16.06,0,0,0,185.7,98H191Z"/><path d="M185.7,104H191V98h-5.3a15.66,15.66,0,0,0,0,6Z"/><path d="M200,85.06h-.22c.11,1,.18,1.84.22,2.61Z"/><path d="M206,88.86V91.1a36.05,36.05,0,0,0-.12-5.47,16.24,16.24,0,0,0-3.71-.6Z"/><path d="M200,90.76a30.51,30.51,0,0,0,0-3.08V91.1h0A1.9,1.9,0,0,1,200,90.76Z"/><path d="M201.42,111a11.17,11.17,0,0,1-1.42-.11v6c.47,0,.94.07,1.42.07a16.1,16.1,0,0,0,4.58-.67v-6.45A9.94,9.94,0,0,1,201.42,111Z"/><path d="M205.81,92a1.63,1.63,0,0,1,.19.09v-1c0,.07,0,.12,0,.14A3,3,0,0,1,205.81,92Z"/><path d="M200,90.76a1.9,1.9,0,0,0,0,.34,9.33,9.33,0,0,1,1.4-.11,9.82,9.82,0,0,1,4.39,1,3,3,0,0,0,.18-.78s0-.07,0-.14V88.86L202.17,85c-.25,0-.49,0-.75,0-.48,0-.95,0-1.42.07v2.62A30.51,30.51,0,0,1,200,90.76Z"/><path class="cls-7" d="M31.81,147.83l1.95-2.62,4.81,3.58-1.88,2.54A16.73,16.73,0,0,0,44,153a17,17,0,0,0,15-9H50.83a10.45,10.45,0,0,1-14.66,0H29A17.06,17.06,0,0,0,31.81,147.83Z"/><path d="M29,144H22.44a23,23,0,0,0,3.13,5.74,3,3,0,0,0,4.83,0h0a3,3,0,0,0,0-3.56A17.11,17.11,0,0,1,29,144Z"/><path d="M62,144H59a17,17,0,0,1-15,9,16.75,16.75,0,0,1-5.37-.88,3,3,0,0,0-3.32,1.07h0a3,3,0,0,0,1.44,4.63A23,23,0,0,0,65.56,144Z"/></g></g></g></svg>