<svg xmlns="http://www.w3.org/2000/svg" viewBox="0 0 250.73 189.4"><defs><style>.cls-1{fill:#cbe4e6;}.cls-2{fill:#eff8f9;}.cls-3{fill:#ce6846;}.cls-4{fill:#fed299;}.cls-5{fill:#f06c57;}.cls-6,.cls-7{fill:none;}.cls-7{stroke:#000;stroke-linecap:round;stroke-miterlimit:10;stroke-width:6px;}</style></defs><g id="Calque_2" data-name="Calque 2"><g id="travaux"><g id="Calque_20" data-name="Calque 20"><polygon class="cls-1" points="11 3.48 230 2.44 236 10.63 231 18.26 12.52 16.94 6 10.35 11 3.48"/><polygon class="cls-1" points="16 34.26 5 35 3 43 6.52 49.45 19 50 16 34.26"/><polygon class="cls-1" points="223 35 235.44 35 239 42.05 236 48.74 222.5 50.17 223 35"/><polygon class="cls-2" points="19.5 18.26 222.5 18.26 222 143.73 212 152 120.5 152 29.41 150.81 22 146.11 19 137.3 19.5 18.26"/><polygon class="cls-3" points="152.06 93 160.95 84.28 180.82 95.24 188 97.24 198.06 91.37 225 63.11 233.5 58.6 245.8 64.02 247.96 72.74 244.74 82.33 206.88 113.04 213.12 129.09 220 143.73 209.98 152.99 152.06 93"/><polygon class="cls-4" points="150 93 117.68 127.13 118.83 133 173 187 179 185 209.98 152.99 150 93"/><polygon class="cls-5" points="34.01 18.26 34.01 46.67 36.06 56.28 42.13 60.28 50 59 55.5 55.42 56.31 40.97 59 36 66.33 33.9 74 37 78 43 77 81 87 89 98 83 99.95 56.28 109 48 120 54 122 69 131.34 73.72 143 65 142.6 17.73 34.01 18.26"/></g><g id="Calque_12" data-name="Calque 12"><polygon class="cls-6" points="145.24 155 144.91 155.34 152.66 163.09 160.76 155 145.24 155"/><path class="cls-6" d="M233,10.63A4.64,4.64,0,0,0,228.37,6H14.63a4.63,4.63,0,0,0,0,9.26H228.37A4.64,4.64,0,0,0,233,10.63Z"/><path class="cls-6" d="M195,98a9.82,9.82,0,0,1-12.29,1.56L164.5,88.19a4,4,0,0,0-5,.56L155.24,93l55.64,55.63.3-.07,4.22-4.22a4.06,4.06,0,0,0,.66-4.87l-10.8-19A9.73,9.73,0,0,1,207.65,108L219,99V72.74Z"/><path class="cls-6" d="M219,106.64l-7.6,6.08a3.78,3.78,0,0,0-.93,4.83l8.53,15"/><path class="cls-6" d="M117.53,122.23l37.72-37.72a10,10,0,0,1,12.43-1.41l18.21,11.41a3.79,3.79,0,0,0,4.75-.6L219,64V21.26H23V138.13A10.87,10.87,0,0,0,33.87,149h96.22l-12.56-12.56A10.06,10.06,0,0,1,117.53,122.23Z"/><path class="cls-6" d="M156.91,167.33l8.76,8.76,17.21-17.21a3,3,0,0,1,4.24,4.24l-17.21,17.21,1.89,1.89a4,4,0,0,0,5.72,0L204.74,155h-35.5Z"/><path class="cls-6" d="M157.88,133.88a3,3,0,0,1,4.24,4.24L151.24,149h15.52l3.12-3.12a3,3,0,0,1,4.94,3.12h27.94L151,97.24l-29.23,29.23a4,4,0,0,0,0,5.73l5.9,5.89,17.21-17.21a3,3,0,0,1,4.24,4.24l-17.21,17.21,6.66,6.67h4.19Z"/><path class="cls-6" d="M10.63,37.42a4.63,4.63,0,1,0,0,9.25H16V37.42Z"/><path class="cls-6" d="M231.37,46.67a4.63,4.63,0,1,0,0-9.25H226v9.25Z"/><path class="cls-6" d="M240,82.14a12.17,12.17,0,0,0,4.3-6.69c.85-3.64.36-6.89-1.43-9.38a10.42,10.42,0,0,0-7.48-4.15,12.11,12.11,0,0,0-9.83,3.87l-.59.62V94.16ZM233,71a3,3,0,1,1-3,3A3,3,0,0,1,233,71Z"/><path d="M211,148.75l.19-.19-.3.07Z"/><path d="M219,132.51l2.27,4a10.05,10.05,0,0,1-1.62,12.08"/><path d="M219,54h0a3,3,0,0,0,3,3h0a3,3,0,0,0,3-3V52.67h-5V31.42h5V21.26h-6Z"/><path d="M33.87,149A10.87,10.87,0,0,1,23,138.13V21.26H17V31.42h5V52.67H17v85.46A16.87,16.87,0,0,0,33.87,155H123a3,3,0,0,0,3-3h0a3,3,0,0,0-3-3Z"/><path d="M14.63,15.26a4.63,4.63,0,0,1,0-9.26H228.37a4.63,4.63,0,0,1,0,9.26H225v6h3.37a10.63,10.63,0,0,0,0-21.26H14.63a10.63,10.63,0,0,0,0,21.26H17v-6Z"/><polygon points="219 21.26 225 21.26 225 15.26 17 15.26 17 21.26 23 21.26 219 21.26"/><path d="M231.37,52.67a10.63,10.63,0,1,0,0-21.25H225V52.67Zm0-15.25a4.63,4.63,0,1,1,0,9.25H226V37.42Z"/><rect x="220" y="31.42" width="5" height="21.26"/><path d="M10.63,31.42a10.63,10.63,0,1,0,0,21.25H17V31.42Zm0,15.25a4.63,4.63,0,1,1,0-9.25H16v9.25Z"/><rect x="17" y="31.42" width="5" height="21.26"/><path d="M208.88,155.12l-.15-.15-.6,0h-3.39l-27.22,27.22a4,4,0,0,1-5.72,0l-1.89-1.89-1.29,1.29a3,3,0,0,1-4.24,0,3,3,0,0,1,0-4.24l1.29-1.29-8.76-8.76-1.29,1.29a3,3,0,0,1-4.24,0,3,3,0,0,1,0-4.24l1.29-1.29-7.76-7.76-1.29,1.29a3,3,0,0,1-5.07-1.62h-2.46l31.46,31.46a10.06,10.06,0,0,0,14.21,0l32.71-32.71a16.59,16.59,0,0,1-5.42,1.2Z"/><path d="M130.62,143.62a3,3,0,0,1-4.24,0,3,3,0,0,1,0-4.24l1.29-1.29-5.9-5.89a4,4,0,0,1,0-5.73L151,97.24l-2.12-2.12,4.24-4.24L155.24,93l4.25-4.25a4,4,0,0,1,5-.56L182.71,99.6A9.82,9.82,0,0,0,195,98l24-25.3V64L190.64,93.91a3.79,3.79,0,0,1-4.75.6L167.68,83.1a10,10,0,0,0-12.43,1.41l-37.72,37.72a10.06,10.06,0,0,0,0,14.21L130.09,149h8.48l-6.66-6.67Z"/><path d="M247.78,62.58A16.39,16.39,0,0,0,236,56a17.72,17.72,0,0,0-11,2.65v7.81l.59-.62a12.11,12.11,0,0,1,9.83-3.87,10.42,10.42,0,0,1,7.48,4.15c1.79,2.49,2.28,5.74,1.43,9.38a12.17,12.17,0,0,1-4.3,6.69l-15,12v7.68l18.78-15a18.31,18.31,0,0,0,6.4-10A17.34,17.34,0,0,0,247.78,62.58Z"/><path d="M205.26,120.52l10.8,19a4.06,4.06,0,0,1-.66,4.87l-4.22,4.22A10.9,10.9,0,0,0,219,138.13v-5.62l-8.53-15a3.78,3.78,0,0,1,.93-4.83l7.6-6.08V99L207.65,108A9.73,9.73,0,0,0,205.26,120.52Z"/><path d="M139.38,152.38l1.29-1.29-2.1-2.09h-8.48l6,6h2.46A3,3,0,0,1,139.38,152.38Z"/><path d="M219,64v8.72l6-6.33V58.6a19.23,19.23,0,0,0-3.76,3.06Z"/><polygon points="219 98.96 219 106.64 225 101.84 225 94.16 219 98.96"/><path d="M204.74,155h3.39l.6,0-2-2Z"/><path d="M221.27,136.5l-2.27-4v5.62a10.9,10.9,0,0,1-7.82,10.43l-.19.19,2.13,2.13L209.05,155a16.59,16.59,0,0,0,5.42-1.2l5.18-5.17A10.08,10.08,0,0,0,221.27,136.5Z"/><path d="M202.76,149h5.37a10.86,10.86,0,0,0,2.75-.37L155.24,93,151,97.24Z"/><path d="M208.13,149h-5.37l4,4,4.24-4.24-.11-.12A10.86,10.86,0,0,1,208.13,149Z"/><rect x="149.06" y="92.56" width="6" height="3" transform="translate(-21.97 135.07) rotate(-45)"/><path d="M208.88,155.12l.17-.17-.32,0Z"/><path d="M208.73,155l.32,0,4.07-4.07L211,148.75,206.75,153Z"/><path d="M149.12,125.12a3,3,0,0,0-4.24-4.24l-17.21,17.21,4.24,4.24Z"/><path d="M126.38,143.62a3,3,0,0,0,4.24,0l1.29-1.29-4.24-4.24-1.29,1.29A3,3,0,0,0,126.38,143.62Z"/><path d="M162.12,133.88a3,3,0,0,0-4.24,0L142.76,149h8.48l10.88-10.88A3,3,0,0,0,162.12,133.88Z"/><polygon points="144.57 155 144.91 155.34 145.24 155 144.57 155"/><polygon points="145.24 155 151.24 149 142.76 149 140.66 151.09 144.57 155 145.24 155"/><path d="M138.55,155a3,3,0,0,0,5.07,1.62l1.29-1.29-.34-.33Z"/><path d="M140.67,151.09l-1.29,1.29a3,3,0,0,0-.83,2.62h6Z"/><path d="M174.12,145.88a3,3,0,0,0-4.24,0L166.76,149h8.06A3,3,0,0,0,174.12,145.88Z"/><polygon points="160.76 155 152.66 163.09 156.91 167.34 169.24 155 160.76 155"/><path d="M160.76,155h8.48l4.88-4.88a3,3,0,0,0,.7-1.12h-8.06Z"/><path d="M151.38,164.38a3,3,0,0,0,0,4.24,3,3,0,0,0,4.24,0l1.29-1.29-4.24-4.24Z"/><path d="M187.12,158.88a3,3,0,0,0-4.24,0l-17.21,17.21,4.24,4.24,17.21-17.21A3,3,0,0,0,187.12,158.88Z"/><path d="M164.38,177.38a3,3,0,0,0,0,4.24,3,3,0,0,0,4.24,0l1.29-1.29-4.24-4.24Z"/><circle cx="233" cy="74" r="3"/><path d="M96,77.71a8,8,0,1,1-16,0V60.28H74.34V77.71a13.66,13.66,0,0,0,27.32,0V60.28H96Z"/><path d="M139.35,62.64a8,8,0,0,1-16,0V60.28h-5.65v2.36a13.66,13.66,0,0,0,27.32,0V60.28h-5.65Z"/><path d="M36.65,49.45V42.38a2.83,2.83,0,0,0-2.82-2.83h0A2.83,2.83,0,0,0,31,42.38v7.07A13.68,13.68,0,0,0,44.66,63.11V57.45A8,8,0,0,1,36.65,49.45Z"/><path d="M35.71,16A4.71,4.71,0,0,0,31,20.71v6.6a2.83,2.83,0,0,0,2.83,2.82h0a2.82,2.82,0,0,0,2.82-2.82V21.65h102.7V16.94H145V16Z"/><path d="M44.66,57.45v5.66A13.68,13.68,0,0,0,58.32,49.45H52.67A8,8,0,0,1,44.66,57.45Z"/><rect x="139.35" y="21.65" width="5.65" height="38.63"/><rect x="139.35" y="16.94" width="5.65" height="4.71"/><path d="M80,44.74a13.66,13.66,0,1,0-27.32,0h5.65a8,8,0,0,1,16,0V60.28H80Z"/><rect x="52.67" y="44.74" width="5.65" height="4.71"/><path d="M109.67,46.15A13.68,13.68,0,0,0,96,59.81v.47h5.65v-.47a8,8,0,0,1,16,0h5.65A13.68,13.68,0,0,0,109.67,46.15Z"/><rect x="117.68" y="59.81" width="5.65" height="0.47"/><line class="cls-7" x1="222" y1="112" x2="222" y2="128"/></g></g></g></svg>