<svg xmlns="http://www.w3.org/2000/svg" viewBox="0 0 211.31 18.2"><defs><style>.cls-1{fill:#ace0b2;}</style></defs><g id="Calque_2" data-name="Calque 2"><g id="typo"><path class="cls-1" d="M11.47.61a16.17,16.17,0,0,1,3.06,1L14,3a12.92,12.92,0,0,0-2.76-.84,13.49,13.49,0,0,0-2.72-.27c-2.82,0-4.8,1-5.68,2.26a2.56,2.56,0,0,0-.46,1.23V5.4a1.68,1.68,0,0,0,.33,1c.69,1,2.37,1.71,5.43,1.71S13.21,9.41,14.18,11a4,4,0,0,1,.59,2.08v.06a3.8,3.8,0,0,1-.6,2c-1,1.52-3.24,2.74-6.81,2.74a15.11,15.11,0,0,1-3.75-.47A14,14,0,0,1,0,16l.73-1.32A13,13,0,0,0,4,16a14.54,14.54,0,0,0,3.38.4c3.06,0,4.8-.87,5.53-2a2.12,2.12,0,0,0,.37-1.21v-.06a2.33,2.33,0,0,0-.38-1.29c-.71-1.18-2.32-2.1-4.79-2.1-3.51,0-5.71-1-6.66-2.33A3.4,3.4,0,0,1,.82,5.4V5.27a3.74,3.74,0,0,1,.74-2C2.68,1.66,5.16.33,8.47.33A17.43,17.43,0,0,1,11.47.61Z"/><path class="cls-1" d="M31,.44V2H18.9v9.56h10v1.53h-10v3.31H31v1.53H17.38V.44Z"/><path class="cls-1" d="M42.34.33A5.49,5.49,0,0,1,46.25,2a5.86,5.86,0,0,1,1.63,4.11,5.84,5.84,0,0,1-1.63,4.11,5.53,5.53,0,0,1-3.91,1.64H40.21l6.88,6.05H44.78l-6.87-6.05H35.18v6.05H33.67V.33Zm-7.16,10h7.16a4,4,0,0,0,2.85-1.19,4.29,4.29,0,0,0,1.18-3,4.27,4.27,0,0,0-1.18-3,4,4,0,0,0-2.85-1.19H35.18Z"/><path class="cls-1" d="M51.45.33,56.9,15.7,62.36.33H64L57.74,17.89H56.07L49.85.33Z"/><path class="cls-1" d="M68.11.33V17.89h-1.5V.33Z"/><path class="cls-1" d="M84.57.68a13.59,13.59,0,0,1,2.74.82l-.55,1.39A12.47,12.47,0,0,0,81.91,2a11.46,11.46,0,0,0-7,2.17,6.3,6.3,0,0,0-2.78,5,6.33,6.33,0,0,0,2.76,5,11.51,11.51,0,0,0,7,2.18,13.16,13.16,0,0,0,5-1l.57,1.4a15.3,15.3,0,0,1-2.83.88,14.22,14.22,0,0,1-2.77.27,13.15,13.15,0,0,1-7.86-2.48,7.91,7.91,0,0,1-3.38-6.24,7.86,7.86,0,0,1,3.38-6.22A13,13,0,0,1,81.91.44,13.93,13.93,0,0,1,84.57.68Z"/><path class="cls-1" d="M103.9.44V2H91.79v9.56h10v1.53h-10v3.31H103.9v1.53H90.28V.44Z"/><path class="cls-1" d="M131.91.33V1.86h-7.48v16h-1.52v-16h-7.48V.33Z"/><path class="cls-1" d="M181.68,1.41l-.56,1.42a11.72,11.72,0,0,0-4.65-1,11.41,11.41,0,0,0-5.6,1.42,7.54,7.54,0,0,0-3.42,3.66A5.8,5.8,0,0,0,167,9.1a5.71,5.71,0,0,0,.45,2.27,7.64,7.64,0,0,0,3.43,3.6,11.51,11.51,0,0,0,5.55,1.39,11.36,11.36,0,0,0,4.13-.75v-4h-8.49V10.09l10,0v6.55l-.47.19a13,13,0,0,1-5.18,1.08,13.24,13.24,0,0,1-6.28-1.59A9.29,9.29,0,0,1,166.1,12a7.44,7.44,0,0,1-.59-2.87,7.45,7.45,0,0,1,.54-2.72A9.07,9.07,0,0,1,170.12,2,13,13,0,0,1,176.47.33,13.29,13.29,0,0,1,181.68,1.41Z"/><path class="cls-1" d="M154.4,3.07a4.7,4.7,0,0,0-1.49-1.66A9.48,9.48,0,0,0,147.48,0a23.27,23.27,0,0,0-9.89,2.52,20.8,20.8,0,0,0-7.46,5.89h0s0,0,0,.06a.74.74,0,0,0,.33,1,.76.76,0,0,0,1-.26h0a19.76,19.76,0,0,1,6.86-5.36,21.61,21.61,0,0,1,9.21-2.35A7.8,7.8,0,0,1,152,2.65a3,3,0,0,1,1,1.14,2.94,2.94,0,0,1,.35,1.43,6.15,6.15,0,0,1-1.32,3.45,19,19,0,0,1-7.1,5.64,21.62,21.62,0,0,1-9.21,2.36,8.06,8.06,0,0,1-4.55-1.11,3.48,3.48,0,0,1-1-1.15,2.8,2.8,0,0,1-.34-1.43,3.69,3.69,0,0,1,.07-.65l0-.18a5.74,5.74,0,0,1,.19-.64.06.06,0,0,1,0,0,.76.76,0,0,0-1.45-.48,5.87,5.87,0,0,0-.38,2,4.59,4.59,0,0,0,.53,2.15,5,5,0,0,0,1.5,1.67,9.52,9.52,0,0,0,5.42,1.4,23.18,23.18,0,0,0,9.89-2.53,20.49,20.49,0,0,0,7.67-6.13,7.67,7.67,0,0,0,1.59-4.32A4.47,4.47,0,0,0,154.4,3.07Z"/><path class="cls-1" d="M210.78,3.07a4.8,4.8,0,0,0-1.49-1.66A9.48,9.48,0,0,0,203.86,0,23.27,23.27,0,0,0,194,2.52a20.8,20.8,0,0,0-7.46,5.89h0l-.05.06a.76.76,0,0,0,1.31.76h0a19.76,19.76,0,0,1,6.86-5.36,21.61,21.61,0,0,1,9.21-2.35,7.8,7.8,0,0,1,4.54,1.11,3,3,0,0,1,1,1.14,2.91,2.91,0,0,1,.34,1.43,6.2,6.2,0,0,1-1.31,3.45,19,19,0,0,1-7.1,5.64,21.62,21.62,0,0,1-9.21,2.36,8,8,0,0,1-4.55-1.12,3.5,3.5,0,0,1-1-1.14,2.9,2.9,0,0,1-.33-1.43,3.69,3.69,0,0,1,.07-.65l0-.18c0-.21.11-.42.18-.64,0,0,0,0,0,0a.75.75,0,0,0-.38-.9.77.77,0,0,0-1.07.43,5.87,5.87,0,0,0-.38,2,4.59,4.59,0,0,0,.53,2.15,5,5,0,0,0,1.5,1.67,9.5,9.5,0,0,0,5.42,1.4,23.18,23.18,0,0,0,9.89-2.53,20.49,20.49,0,0,0,7.67-6.13,7.75,7.75,0,0,0,1.59-4.32A4.47,4.47,0,0,0,210.78,3.07Z"/></g></g></svg>